<?xml version="1.0" encoding="UTF-8" standalone="no"?>
<svg
   xmlns:dc="http://purl.org/dc/elements/1.1/"
   xmlns:cc="http://creativecommons.org/ns#"
   xmlns:rdf="http://www.w3.org/1999/02/22-rdf-syntax-ns#"
   xmlns:svg="http://www.w3.org/2000/svg"
   xmlns="http://www.w3.org/2000/svg"
   xmlns:sodipodi="http://sodipodi.sourceforge.net/DTD/sodipodi-0.dtd"
   xmlns:inkscape="http://www.inkscape.org/namespaces/inkscape"
   version="1.1"
   x="0px"
   y="0px"
   viewBox="0 0 882 300"
   style="enable-background:new 0 0 882 300;"
   id="svg4832"
   sodipodi:docname="banner.svg"
   inkscape:version="0.92.4 5da689c313, 2019-01-14">
  <metadata
     id="metadata4838">
    <rdf:RDF>
      <cc:Work
         rdf:about="">
        <dc:format>image/svg+xml</dc:format>
        <dc:type
           rdf:resource="http://purl.org/dc/dcmitype/StillImage" />
      </cc:Work>
    </rdf:RDF>
  </metadata>
  <defs
     id="defs4836" />
  <sodipodi:namedview
     pagecolor="#ffffff"
     bordercolor="#666666"
     borderopacity="1"
     objecttolerance="10"
     gridtolerance="10"
     guidetolerance="10"
     inkscape:pageopacity="0"
     inkscape:pageshadow="2"
     inkscape:window-width="3840"
     inkscape:window-height="2117"
     id="namedview4834"
     showgrid="false"
     showguides="false"
     inkscape:zoom="1.8333333"
     inkscape:cx="556.56698"
     inkscape:cy="72.513346"
     inkscape:window-x="0"
     inkscape:window-y="23"
     inkscape:window-maximized="1"
     inkscape:current-layer="svg4832" />
  <style
     type="text/css"
     id="style4698">
	.st0{fill:#C4C3C6;}
	.st1{fill:#FFFFFF;}
	.st2{fill-rule:evenodd;clip-rule:evenodd;}
	.st3{fill-rule:evenodd;clip-rule:evenodd;fill:#C4C3C6;}
	.st4{fill-rule:evenodd;clip-rule:evenodd;fill:#FFFFFF;}
	.st5{fill:#010101;}
	.st6{fill:none;}
	.st7{fill-rule:evenodd;clip-rule:evenodd;fill:#B1B2B7;}
	.st8{fill-rule:evenodd;clip-rule:evenodd;fill:#FDFDFD;}
	.st9{fill-rule:evenodd;clip-rule:evenodd;fill:#F9F9F9;}
</style>
  <path
     d="M 6 0 C 2.7 0 0 2.7 0 6 L 0 203 C 0 206.3 2.7 209 6 209 L 580.11133 209 C 583.94767 217.7142 589.0793 225.88395 595.15234 232.66016 C 594.25071 234.85267 593.75802 237.22443 593.89453 239.7207 C 594.02666 244.70091 596.42244 248.95619 600.19727 252.05469 C 602.90665 254.35017 606.31886 255.92633 610.25391 257.19336 C 616.89305 259.19382 625.33409 260.07456 634.44922 259.73633 C 643.56435 259.39811 651.93249 257.85745 658.4668 255.37695 C 662.29 253.86594 665.57374 252.02432 668.13867 249.48047 C 671.69945 246.101 673.86065 241.67552 673.72852 236.69531 C 673.65632 234.27564 673.00902 231.94836 671.99023 229.80078 C 676.77018 223.63503 680.80707 216.52231 683.92773 209 L 876 209 C 879.3 209 882 206.3 882 203 L 882 6 C 882 2.7 879.3 0 876 0 L 6 0 z "
     id="path4700" />
  <g
     aria-label="Query Node"
     style="font-style:normal;font-variant:normal;font-weight:normal;font-stretch:normal;font-size:48.182827px;line-height:1.25;font-family:'Titillium Web';-inkscape-font-specification:'Titillium Web';text-align:start;letter-spacing:0px;word-spacing:0px;text-anchor:start;fill:#ffffff;fill-opacity:1;stroke:none;stroke-width:1.20457077"
     id="text4951">
    <path
       d="m 75.772144,101.17539 q -7.468338,0 -10.311125,-4.095544 -2.842787,-4.095541 -2.842787,-12.864815 0,-8.817457 2.89097,-13.057546 2.890969,-4.288272 10.262942,-4.288272 7.371972,0 10.262942,4.240089 2.939152,4.240089 2.939152,13.057546 0,6.119219 -1.252753,9.829297 -1.252754,3.661895 -4.288272,5.444659 l 4.095541,6.601046 -3.469164,1.63822 -4.240089,-6.93833 q -1.590033,0.43365 -4.047357,0.43365 z M 66.424675,84.166848 q 0,7.32379 1.927313,10.552039 1.927314,3.180067 7.420156,3.180067 5.541025,0 7.420155,-3.083701 1.927313,-3.131884 1.927313,-10.503856 0,-7.420156 -1.975496,-10.792954 -1.975496,-3.372798 -7.420155,-3.372798 -5.396477,0 -7.371973,3.372798 -1.927313,3.324615 -1.927313,10.648405 z"
       style="fill:#ffffff;fill-opacity:1;stroke-width:1.20457077"
       id="path5015" />
    <path
       d="m 110.17468,76.602144 h 3.61371 v 24.091416 h -3.61371 v -1.686401 q -3.61372,2.168231 -7.13106,2.168231 -4.914651,0 -6.552867,-2.553694 -1.590033,-2.55369 -1.590033,-9.443834 V 76.602144 h 3.613712 v 12.527535 q 0,5.251928 0.915473,7.034693 0.915475,1.782765 4.143725,1.782765 1.59003,0 3.22825,-0.433646 1.63821,-0.481828 2.5055,-0.915474 l 0.8673,-0.433645 z"
       style="fill:#ffffff;fill-opacity:1;stroke-width:1.20457077"
       id="path5017" />
    <path
       d="m 137.10879,97.706222 1.3973,-0.144548 0.0964,2.842786 q -5.49284,0.77093 -9.39565,0.77093 -5.20375,0 -7.37198,-2.987339 -2.16822,-3.035518 -2.16822,-9.395652 0,-12.672083 10.07021,-12.672083 4.86646,0 7.2756,2.746421 2.40915,2.698238 2.40915,8.52836 l -0.19274,2.746422 H 123.3285 q 0,3.999174 1.44549,5.926487 1.44548,1.927313 5.01101,1.927313 3.61371,0 7.32379,-0.289097 z m -1.30094,-10.455673 q 0,-4.43282 -1.44548,-6.263768 -1.3973,-1.830947 -4.62555,-1.830947 -3.18007,0 -4.81829,1.927313 -1.59003,1.927313 -1.63821,6.167402 z"
       style="fill:#ffffff;fill-opacity:1;stroke-width:1.20457077"
       id="path5019" />
    <path
       d="M 145.05892,100.69356 V 76.602144 h 3.56552 v 3.276432 q 4.19191,-2.890969 8.81746,-3.806443 v 3.661895 q -2.02368,0.385463 -4.24009,1.204571 -2.16822,0.819108 -3.32461,1.445484 l -1.20457,0.626377 v 17.6831 z"
       style="fill:#ffffff;fill-opacity:1;stroke-width:1.20457077"
       id="path5021" />
    <path
       d="m 159.46552,76.602144 h 3.61371 l 6.02285,20.95953 h 1.59004 l 6.07103,-20.95953 h 3.61372 l -10.02203,34.788006 h -3.61371 l 3.13188,-10.69659 h -3.56553 z"
       style="fill:#ffffff;fill-opacity:1;stroke-width:1.20457077"
       id="path5023" />
    <path
       d="M 196.22898,100.69356 V 67.351041 h 6.93833 l 12.76844,30.066085 h 1.01184 V 67.351041 h 3.6619 v 33.342519 h -6.79378 L 200.85453,70.627474 h -0.91547 v 30.066086 z"
       style="fill:#ffffff;fill-opacity:1;stroke-width:1.20457077"
       id="path5025" />
    <path
       d="m 226.87315,88.599668 q 0,-6.601047 2.36095,-9.5402 2.36096,-2.939152 7.95017,-2.939152 5.63739,0 7.95017,2.939152 2.36096,2.939153 2.36096,9.5402 0,6.601047 -2.21641,9.588383 -2.21641,2.987339 -8.09472,2.987339 -5.8783,0 -8.09471,-2.987339 -2.21641,-2.987336 -2.21641,-9.588383 z m 3.71007,-0.04818 q 0,5.251928 1.25276,7.371973 1.30093,2.120044 5.34829,2.120044 4.09554,0 5.34829,-2.071861 1.25276,-2.120045 1.25276,-7.420156 0,-5.300111 -1.3973,-7.275607 -1.39731,-2.023678 -5.20375,-2.023678 -3.75826,0 -5.20374,2.023678 -1.39731,1.975496 -1.39731,7.275607 z"
       style="fill:#ffffff;fill-opacity:1;stroke-width:1.20457077"
       id="path5027" />
    <path
       d="m 271.87589,66.098288 v 34.595272 h -3.56552 v -1.638218 q -3.71008,2.120048 -7.32379,2.120048 -1.92732,0 -3.3728,-0.48183 -1.44549,-0.48183 -2.69824,-1.734584 -2.60187,-2.601873 -2.60187,-9.588383 0,-7.034692 2.31277,-10.118393 2.36096,-3.131884 7.75744,-3.131884 2.7946,0 5.92649,0.626377 V 66.098288 Z m -14.16575,30.258815 q 0.77093,0.915474 1.63822,1.252754 0.86729,0.33728 2.21641,0.33728 1.3973,0 3.0837,-0.433646 1.73458,-0.481828 2.69824,-0.915474 l 0.96366,-0.433645 V 79.830394 q -3.08371,-0.578194 -5.73376,-0.578194 -3.6619,0 -5.10738,2.360958 -1.44549,2.312776 -1.44549,7.227424 0,5.589208 1.6864,7.516521 z"
       style="fill:#ffffff;fill-opacity:1;stroke-width:1.20457077"
       id="path5029" />
    <path
       d="m 295.24453,97.706222 1.3973,-0.144548 0.0964,2.842786 q -5.49285,0.77093 -9.39566,0.77093 -5.20374,0 -7.37197,-2.987339 -2.16822,-3.035518 -2.16822,-9.395652 0,-12.672083 10.07021,-12.672083 4.86646,0 7.2756,2.746421 2.40914,2.698238 2.40914,8.52836 l -0.19273,2.746422 h -15.90033 q 0,3.999174 1.44548,5.926487 1.44549,1.927313 5.01102,1.927313 3.61371,0 7.32379,-0.289097 z m -1.30094,-10.455673 q 0,-4.43282 -1.44548,-6.263768 -1.3973,-1.830947 -4.62555,-1.830947 -3.18007,0 -4.81829,1.927313 -1.59003,1.927313 -1.63821,6.167402 z"
       style="fill:#ffffff;fill-opacity:1;stroke-width:1.20457077"
       id="path5031" />
  </g>
  <g
     id="Layer_2" />
  <g
     id="Layer_3" />
  <path
     id="Shape"
     class="st3"
     d="m 667.2322,99.205926 c -5.10082,2.321984 -15.30074,3.700994 -27.18158,4.010194 -17.2071,0.34007 -30.77417,-1.98259 -30.82705,-6.24606 -0.0423,-1.139392 0.97823,-2.256782 2.83172,-3.159335 -1.59902,0.42795 -3.06948,1.00911 -4.46334,1.52599 0.24824,-6.082629 -3.27304,-13.701722 -17.11392,-13.705969 -14.34014,0.02305 -30.5555,24.725324 -18.68673,47.270884 8.53065,16.07818 11.07463,30.00004 8.99053,38.40638 -1.62804,3.19366 -1.60776,5.39584 -0.0158,6.67082 0.796,0.63748 1.62897,0.85232 2.57552,0.58023 -0.01,0.9219 -0.007,1.70292 0.0599,2.56055 0.66677,19.15216 11.11438,41.71535 26.06045,54.23792 -3.06417,2.57115 -4.87273,5.39412 -4.73622,7.89039 0.21404,6.47798 13.3118,10.10821 29.26328,9.51632 15.95148,-0.59189 28.84223,-5.14256 28.56391,-11.69714 -0.005,-1.56204 -2.62045,-2.50064 -7.83313,-2.95669 -3.59868,-0.24387 -8.92494,-0.21299 -15.97878,0.0926 -10.61289,0.42013 -15.22506,-0.40927 -20.77676,-2.6695 12.42502,1.58392 27.24493,-7.97957 39.75346,-19.51979 22.15803,-20.42037 22.09973,-37.60282 22.0328,-38.46045 -0.45538,-13.45521 -6.48009,-30.5918 -24.87071,-39.44081 -6.06593,-2.87307 -6.13471,-11.82267 -4.81308,-14.75921 5.63255,-11.64493 17.08186,-18.38015 17.16549,-20.147354 z m -71.93394,6.838044 c 1.97237,0.17256 3.99404,-0.21842 5.69431,-0.99241 1.18697,2.65915 3.89198,7.43858 8.43907,15.50232 1.53302,2.76041 2.10105,11.68271 -3.80279,15.07013 -8.74086,4.98472 -14.36466,11.66176 -17.82326,18.74117 -1.20552,-8.1263 -4.55424,-17.71775 -9.82868,-28.82632 -4.79718,-10.07309 -1.78416,-20.17268 0.5703,-24.3675 2.35446,-4.194818 7.60757,-10.691347 13.86541,-11.634454 4.03101,-0.641063 7.69225,2.94437 7.03806,6.365194 -0.66651,3.561708 -6.74119,5.65653 -8.20993,2.972725 -0.18051,-0.370696 -0.5292,-1.252973 -0.35134,-1.663297 0.24478,0.447301 0.84794,0.854975 1.87375,1.299626 2.40469,-0.712368 3.61804,-1.599944 3.8452,-2.573801 0.37772,-1.883435 -1.22924,-3.798546 -3.60928,-3.367945 -3.0325,0.586459 -5.35529,2.796589 -7.70273,5.288484 1.17995,4.362078 5.071,7.754678 10.00191,8.186078 z"
     inkscape:connector-curvature="0"
     style="clip-rule:evenodd;fill:#c4c3c6;fill-rule:evenodd" />
  <g
     id="Group-28"
     transform="matrix(-0.75470958,0.65605903,0.65605903,0.75470958,116.47633,100.27131)">
    <path
       d="m -339.4,377.8 c -4.3,-4.8 -0.9,-10.2 5.1,-13.2 3.1,-1.5 6.3,-2.2 8.7,-0.1 1.7,1.1 2.3,3.3 1.5,5.1 -1.1,2.8 -3.4,4.9 -6.2,5.7 -0.7,0.3 -1.5,0.4 -2.2,0.2 1.5,-1.5 2.8,-3.2 3.8,-5.1 1.1,-2.6 -0.2,-4.4 -3.1,-4.1 -2.9,0.5 -5.4,2.5 -6.4,5.3 -0.5,1.3 -0.5,2.8 0.1,4 0.6,1.3 1.7,2.2 3.1,2.6 3.9,1 8,0 10.9,-2.8 3.1,-2.3 4.4,-6.3 3.3,-10 -0.7,-2.5 -3.2,-7.3 -10.7,-5.3 -4.8,0.9 -12.1,7.6 -13.3,11.9 -1,3.9 -0.2,6.9 3,9 2.1,1 4.4,1.6 6.7,1.5 0.8,0 1.6,-0.1 2.4,-0.2 0,-0.1 0,-0.2 0.1,-0.3 -2.6,-0.7 -5,-2.2 -6.8,-4.2 z"
       id="path4814"
       inkscape:connector-curvature="0" />
    <path
       id="Path-Copy-25"
       d="m -344,387.1 c 4.2,4.6 0.8,9.8 -4.9,12.6 -3,1.5 -6.1,2.1 -8.4,0.1 -1.6,-1.1 -2.2,-3.1 -1.4,-4.9 1,-2.7 3.2,-4.7 6,-5.4 0.7,-0.3 1.4,-0.4 2.1,-0.2 -1.4,1.4 -2.7,3.1 -3.6,4.9 -1.1,2.5 0.2,4.2 3,3.9 2.8,-0.5 5.1,-2.4 6.1,-5 0.5,-1.3 0.4,-2.7 -0.1,-3.9 -0.6,-1.2 -1.7,-2.1 -2.9,-2.5 -3.7,-1 -7.7,0 -10.5,2.6 -3,2.2 -4.2,6.1 -3.1,9.6 0.7,2.4 3.1,7 10.3,5.1 4.6,-0.9 11.6,-7.3 12.7,-11.4 1,-3.7 0.2,-6.6 -2.9,-8.6 -2,-1 -4.2,-1.5 -6.4,-1.5 -0.8,0 -1.6,0.1 -2.3,0.2 0,0.1 0,0.2 -0.1,0.3 2.4,0.8 4.7,2.2 6.4,4.1 z"
       inkscape:connector-curvature="0" />
    <path
       id="Path-Copy-26"
       d="m -376.7,421 c -5,-4.1 -2.6,-10.2 2.6,-14.3 2.7,-2.1 5.7,-3.4 8.3,-1.6 1.8,0.8 2.8,2.9 2.3,4.9 -0.5,3 -2.4,5.6 -5,6.9 -0.6,0.4 -1.3,0.6 -2.1,0.6 1.2,-1.8 2.1,-3.8 2.8,-5.8 0.6,-2.9 -0.9,-4.5 -3.7,-3.6 -2.7,1 -4.7,3.5 -5.2,6.5 -0.3,1.4 0,2.9 0.8,4.1 0.8,1.2 2,2 3.4,2.1 3.9,0.3 7.6,-1.4 9.9,-4.7 2.5,-2.9 3.1,-7.2 1.4,-10.8 -1.1,-2.5 -4.3,-6.9 -11.2,-3.5 -4.4,1.8 -10.2,9.8 -10.6,14.4 -0.3,4.1 1,7.1 4.4,8.6 2.2,0.7 4.4,0.8 6.6,0.4 0.8,-0.1 1.5,-0.3 2.3,-0.6 0,-0.1 0,-0.2 0,-0.3 -2.5,-0.5 -4.9,-1.6 -7,-3.3 z"
       inkscape:connector-curvature="0" />
  </g>
  <path
     class="st4"
     d="m 645.68317,91.571187 c -1.90809,-0.09596 -3.96938,-0.06335 -5.95407,-0.09503 -7.52844,0.05115 -14.68353,0.70282 -19.81431,1.744532 -2.45664,0.494879 -4.42635,1.10334 -5.61505,1.709151 -1.03548,0.477253 -1.43083,0.93953 -1.37888,1.157017 0.052,0.217488 0.43763,0.677115 1.46344,1.121765 1.29525,0.610186 3.30724,1.141116 5.6776,1.632419 5.23998,0.955304 8.51728,0.816145 16.12232,0.700712 7.52844,-0.05115 4.20092,-3.394449 9.33169,-4.436161 2.45664,-0.494879 8.9663,-2.693609 0.16726,-3.534405 z"
     id="path4819"
     inkscape:connector-curvature="0"
     style="clip-rule:evenodd;fill:#ffffff;fill-rule:evenodd" />
  <path
     class="st2"
     d="m 657.17792,132.18412 c -6.11788,-3.09055 -3.4843,-8.04174 -2.16268,-10.97829 1.49949,-3.34687 7.85846,-15.99295 9.92413,-18.5095 -26.15737,19.07674 -42.84852,16.76469 -42.25146,22.92127 0.53279,6.07998 17.30399,1.79782 35.29661,10.32809 -0.67976,-0.34339 -0.12683,-3.41817 -0.8066,-3.76157 z"
     id="path4821"
     inkscape:connector-curvature="0"
     style="clip-rule:evenodd;fill-rule:evenodd" />
  <path
     class="st4"
     d="m 609.84059,233.52008 c -10.10913,9.26582 11.9805,13.96666 24.53846,13.21984 15.63008,-0.97491 28.39228,-5.67878 28.30679,-12.00355 -0.005,-1.56204 1.96799,2.6565 -17.98454,5.16973 -19.95254,2.51322 -29.93059,1.35633 -34.86071,-6.38602 z"
     id="path4823"
     inkscape:connector-curvature="0"
     style="clip-rule:evenodd;fill:#ffffff;fill-rule:evenodd" />
  <path
     id="Path-Copy-11"
     class="st4"
     d="m 634.28274,139.12463 c -23.25195,-7.64176 -45.39236,14.19977 -44.76257,33.77458 0.83853,24.49075 8.82142,33.84882 16.52877,48.79026 0.36102,0.74139 7.23528,4.11106 6.58454,1.00196 -1.02674,-4.49064 -10.06102,-18.05758 -11.86453,-36.38644 -3.19047,-30.87185 20.84411,-37.85464 33.51379,-47.18036 z"
     inkscape:connector-curvature="0"
     style="clip-rule:evenodd;fill:#ffffff;fill-rule:evenodd" />
  <path
     d="m 613.0705,91.131294 c -2.21186,0.94218 -3.08976,-1.193069 -5.09645,-0.161958 0.38567,0.459626 -0.24652,2.817664 -0.33279,3.803846 -0.82675,5.393188 -3.58716,6.926208 -5.94957,8.777958 -2.36242,1.85176 -5.04887,2.53948 -8.46705,2.66631 1.52507,0.41735 2.68209,1.79623 4.70375,1.40526 11.04257,-2.08608 21.65799,-13.082119 20.12935,-18.326474 -1.67563,0.492229 -3.2993,1.201946 -4.98724,1.835058 z"
     id="path4826"
     inkscape:connector-curvature="0" />
  <g
     aria-label="Our system for extracting data from Substrate blockchains"
     style="font-style:normal;font-variant:normal;font-weight:normal;font-stretch:normal;font-size:17.92412186px;line-height:1.25;font-family:'Titillium Web';-inkscape-font-specification:'Titillium Web';text-align:start;letter-spacing:0px;word-spacing:0px;text-anchor:start;fill:#c4c3c6;fill-opacity:1;stroke:none;stroke-width:0.44810304"
     id="text4947">
    <path
       d="m 64.834741,138.79445 q 0,2.72447 0.716965,3.92539 0.716965,1.18299 2.760315,1.18299 2.061274,0 2.760314,-1.16507 0.716965,-1.16507 0.716965,-3.90746 0,-2.74239 -0.734889,-3.99708 -0.734889,-1.25468 -2.760315,-1.25468 -2.007501,0 -2.74239,1.25468 -0.716965,1.23677 -0.716965,3.96123 z m 8.388489,0.0358 q 0,3.31597 -1.057523,4.80367 -1.057523,1.4877 -3.853686,1.4877 -2.778239,0 -3.835762,-1.52355 -1.057524,-1.52355 -1.057524,-4.78574 0,-3.28012 1.075448,-4.85744 1.075447,-1.59524 3.817838,-1.59524 2.74239,0 3.817838,1.57732 1.093371,1.57732 1.093371,4.89328 z"
       style="text-align:start;text-anchor:start;fill:#c4c3c6;fill-opacity:1;stroke-width:0.44810304"
       id="path5144" />
    <path
       d="m 81.109841,135.98037 h 1.344309 v 8.96206 h -1.344309 v -0.62735 q -1.344309,0.80659 -2.65277,0.80659 -1.82826,0 -2.437681,-0.94998 -0.591496,-0.94998 -0.591496,-3.51313 v -4.67819 h 1.34431 v 4.66027 q 0,1.95373 0.340558,2.61692 0.340558,0.66319 1.541474,0.66319 0.591496,0 1.200917,-0.16131 0.60942,-0.17924 0.932054,-0.34056 l 0.322634,-0.16132 z"
       style="text-align:start;text-anchor:start;fill:#c4c3c6;fill-opacity:1;stroke-width:0.44810304"
       id="path5146" />
    <path
       d="m 85.035192,144.94243 v -8.96206 h 1.326385 v 1.21884 q 1.559399,-1.07545 3.280115,-1.41601 v 1.36224 q -0.752813,0.14339 -1.577323,0.4481 -0.806586,0.30471 -1.236764,0.53772 l -0.448103,0.23302 v 6.57815 z"
       style="text-align:start;text-anchor:start;fill:#c4c3c6;fill-opacity:1;stroke-width:0.44810304"
       id="path5148" />
    <path
       d="m 97.994299,137.00204 q -1.953729,0 -1.953729,1.36224 0,0.62734 0.448103,0.8962 0.448103,0.25094 2.04335,0.53773 1.595247,0.26886 2.258437,0.77073 0.66319,0.50188 0.66319,1.88204 0,1.38015 -0.8962,2.02542 -0.878283,0.64527 -2.581075,0.64527 -1.111296,0 -2.616922,-0.25094 l -0.537724,-0.0896 0.0717,-1.16507 q 2.04335,0.30471 3.082949,0.30471 1.039599,0 1.577323,-0.32263 0.555652,-0.34056 0.555652,-1.1113 0,-0.78866 -0.466032,-1.05752 -0.466027,-0.28679 -2.04335,-0.53772 -1.577322,-0.25094 -2.240515,-0.73489 -0.663192,-0.48395 -0.663192,-1.79241 0,-1.30847 0.91413,-1.93581 0.932054,-0.62734 2.312212,-0.62734 1.093371,0 2.742387,0.25093 l 0.50188,0.0896 -0.0358,1.14715 q -1.989577,-0.28679 -3.136721,-0.28679 z"
       style="text-align:start;text-anchor:start;fill:#c4c3c6;fill-opacity:1;stroke-width:0.44810304"
       id="path5150" />
    <path
       d="m 102.52905,135.98037 h 1.34431 l 2.24051,7.79699 h 0.5915 l 2.25844,-7.79699 h 1.34431 l -3.72822,12.94121 h -1.34431 l 1.16507,-3.97915 h -1.32639 z"
       style="text-align:start;text-anchor:start;fill:#c4c3c6;fill-opacity:1;stroke-width:0.44810304"
       id="path5152" />
    <path
       d="m 114.71741,137.00204 q -1.95373,0 -1.95373,1.36224 0,0.62734 0.44811,0.8962 0.4481,0.25094 2.04335,0.53773 1.59524,0.26886 2.25844,0.77073 0.66319,0.50188 0.66319,1.88204 0,1.38015 -0.89621,2.02542 -0.87828,0.64527 -2.58107,0.64527 -1.1113,0 -2.61692,-0.25094 l -0.53773,-0.0896 0.0717,-1.16507 q 2.04335,0.30471 3.08295,0.30471 1.0396,0 1.57732,-0.32263 0.55565,-0.34056 0.55565,-1.1113 0,-0.78866 -0.46603,-1.05752 -0.46602,-0.28679 -2.04335,-0.53772 -1.57732,-0.25094 -2.24051,-0.73489 -0.6632,-0.48395 -0.6632,-1.79241 0,-1.30847 0.91413,-1.93581 0.93206,-0.62734 2.31222,-0.62734 1.09337,0 2.74239,0.25093 l 0.50187,0.0896 -0.0358,1.14715 q -1.98957,-0.28679 -3.13672,-0.28679 z"
       style="text-align:start;text-anchor:start;fill:#c4c3c6;fill-opacity:1;stroke-width:0.44810304"
       id="path5154" />
    <path
       d="m 124.88036,137.14544 h -2.84994 v 4.28386 q 0,1.54148 0.21509,2.02543 0.23301,0.48395 1.07545,0.48395 l 1.59524,-0.10755 0.0896,1.1113 q -1.20091,0.19716 -1.82826,0.19716 -1.39808,0 -1.9358,-0.68111 -0.53772,-0.68112 -0.53772,-2.599 v -4.71404 h -1.27262 v -1.16507 h 1.27262 v -2.74239 h 1.32638 v 2.74239 h 2.84994 z"
       style="text-align:start;text-anchor:start;fill:#c4c3c6;fill-opacity:1;stroke-width:0.44810304"
       id="path5156" />
    <path
       d="m 132.62357,143.83113 0.5198,-0.0538 0.0358,1.05752 q -2.04335,0.28679 -3.4952,0.28679 -1.93581,0 -2.74239,-1.1113 -0.80659,-1.12922 -0.80659,-3.4952 0,-4.71404 3.74614,-4.71404 1.81034,0 2.70654,1.02167 0.89621,1.00375 0.89621,3.17257 l -0.0717,1.02168 h -5.91496 q 0,1.4877 0.53773,2.20466 0.53772,0.71697 1.86411,0.71697 1.34431,0 2.72446,-0.10755 z m -0.48395,-3.88953 q 0,-1.64902 -0.53772,-2.33014 -0.5198,-0.68111 -1.72072,-0.68111 -1.18299,0 -1.79241,0.71696 -0.5915,0.71697 -0.60942,2.29429 z"
       style="text-align:start;text-anchor:start;fill:#c4c3c6;fill-opacity:1;stroke-width:0.44810304"
       id="path5158" />
    <path
       d="m 136.92535,144.94243 h -1.34431 v -8.96206 h 1.32638 v 0.62734 q 1.34431,-0.80658 2.61692,-0.80658 1.66695,0 2.33014,0.91413 0.5915,-0.35849 1.52355,-0.62735 0.94998,-0.28678 1.66694,-0.28678 1.79242,0 2.40184,0.9679 0.62734,0.94998 0.62734,3.44143 v 4.73197 h -1.34431 v -4.69612 q 0,-1.86411 -0.35848,-2.54523 -0.35848,-0.69904 -1.52355,-0.69904 -0.5915,0 -1.21884,0.17924 -0.62735,0.16132 -0.9679,0.32264 l -0.34056,0.16132 q 0.23301,0.59149 0.23301,2.61692 v 4.66027 h -1.34431 v -4.62442 q 0,-1.93581 -0.35848,-2.61693 -0.34056,-0.69904 -1.52355,-0.69904 -0.57357,0 -1.18299,0.17924 -0.5915,0.16132 -0.91413,0.32264 l -0.30471,0.16132 z"
       style="text-align:start;text-anchor:start;fill:#c4c3c6;fill-opacity:1;stroke-width:0.44810304"
       id="path5160" />
    <path
       d="m 156.22959,137.14544 v 7.79699 h -1.34431 v -7.79699 h -1.12922 v -1.16507 h 1.12922 v -0.80659 q 0,-1.89995 0.53772,-2.58107 0.53772,-0.69904 1.88203,-0.69904 l 1.81034,0.12547 -0.0179,1.11129 q -1.00375,-0.0358 -1.66695,-0.0358 -0.64527,0 -0.93205,0.43018 -0.26886,0.43018 -0.26886,1.66695 v 0.78866 h 2.59899 v 1.16507 z"
       style="text-align:start;text-anchor:start;fill:#c4c3c6;fill-opacity:1;stroke-width:0.44810304"
       id="path5162" />
    <path
       d="m 159.88609,140.44347 q 0,-2.4556 0.87828,-3.54897 0.87828,-1.09337 2.95748,-1.09337 2.09712,0 2.95748,1.09337 0.87828,1.09337 0.87828,3.54897 0,2.45561 -0.82451,3.5669 -0.82451,1.1113 -3.01125,1.1113 -2.18675,0 -3.01125,-1.1113 -0.82451,-1.11129 -0.82451,-3.5669 z m 1.38015,-0.0179 q 0,1.95373 0.46603,2.74239 0.48395,0.78866 1.98958,0.78866 1.52355,0 1.98958,-0.77074 0.46602,-0.78866 0.46602,-2.76031 0,-1.97165 -0.5198,-2.70654 -0.5198,-0.75282 -1.9358,-0.75282 -1.39808,0 -1.93581,0.75282 -0.5198,0.73489 -0.5198,2.70654 z"
       style="text-align:start;text-anchor:start;fill:#c4c3c6;fill-opacity:1;stroke-width:0.44810304"
       id="path5164" />
    <path
       d="m 169.74435,144.94243 v -8.96206 h 1.32639 v 1.21884 q 1.5594,-1.07545 3.28011,-1.41601 v 1.36224 q -0.75281,0.14339 -1.57732,0.4481 -0.80659,0.30471 -1.23677,0.53772 l -0.4481,0.23302 v 6.57815 z"
       style="text-align:start;text-anchor:start;fill:#c4c3c6;fill-opacity:1;stroke-width:0.44810304"
       id="path5166" />
    <path
       d="m 185.98357,143.83113 0.5198,-0.0538 0.0359,1.05752 q -2.04335,0.28679 -3.4952,0.28679 -1.93581,0 -2.74239,-1.1113 -0.80659,-1.12922 -0.80659,-3.4952 0,-4.71404 3.74614,-4.71404 1.81034,0 2.70654,1.02167 0.89621,1.00375 0.89621,3.17257 l -0.0717,1.02168 h -5.91496 q 0,1.4877 0.53773,2.20466 0.53772,0.71697 1.86411,0.71697 1.34431,0 2.72446,-0.10755 z m -0.48395,-3.88953 q 0,-1.64902 -0.53772,-2.33014 -0.5198,-0.68111 -1.72072,-0.68111 -1.18299,0 -1.79241,0.71696 -0.5915,0.71697 -0.60942,2.29429 z"
       style="text-align:start;text-anchor:start;fill:#c4c3c6;fill-opacity:1;stroke-width:0.44810304"
       id="path5168" />
    <path
       d="m 187.9731,135.98037 h 1.46978 l 2.18674,3.51313 2.18674,-3.51313 h 1.46978 l -2.84993,4.44518 2.83201,4.51688 h -1.46978 l -2.16882,-3.49521 -2.18674,3.49521 h -1.46978 l 2.81409,-4.48103 z"
       style="text-align:start;text-anchor:start;fill:#c4c3c6;fill-opacity:1;stroke-width:0.44810304"
       id="path5170" />
    <path
       d="m 201.61336,137.14544 h -2.84993 v 4.28386 q 0,1.54148 0.21509,2.02543 0.23301,0.48395 1.07544,0.48395 l 1.59525,-0.10755 0.0896,1.1113 q -1.20092,0.19716 -1.82826,0.19716 -1.39808,0 -1.93581,-0.68111 -0.53772,-0.68112 -0.53772,-2.599 v -4.71404 h -1.27261 v -1.16507 h 1.27261 v -2.74239 h 1.32639 v 2.74239 h 2.84993 z"
       style="text-align:start;text-anchor:start;fill:#c4c3c6;fill-opacity:1;stroke-width:0.44810304"
       id="path5172" />
    <path
       d="m 203.26237,144.94243 v -8.96206 h 1.32638 v 1.21884 q 1.5594,-1.07545 3.28011,-1.41601 v 1.36224 q -0.75281,0.14339 -1.57732,0.4481 -0.80658,0.30471 -1.23676,0.53772 l -0.44811,0.23302 v 6.57815 z"
       style="text-align:start;text-anchor:start;fill:#c4c3c6;fill-opacity:1;stroke-width:0.44810304"
       id="path5174" />
    <path
       d="m 215.79132,138.68691 v 4.58858 q 0.0538,0.66319 1.0396,0.78866 l -0.0538,1.05752 q -1.416,0 -2.13297,-0.71697 -1.61317,0.71697 -3.22634,0.71697 -1.23676,0 -1.88203,-0.69904 -0.64527,-0.69904 -0.64527,-2.0075 0,-1.30846 0.66319,-1.91788 0.66319,-0.62735 2.0792,-0.77074 l 2.81409,-0.26886 v -0.77074 q 0,-0.91413 -0.39433,-1.30846 -0.39433,-0.39433 -1.07545,-0.39433 -1.43393,0 -2.9754,0.17924 l -0.55565,0.0538 -0.0538,-1.02167 q 1.97165,-0.39433 3.4952,-0.39433 1.52355,0 2.20467,0.69904 0.69904,0.69904 0.69904,2.18674 z m -5.52063,3.65652 q 0,1.64902 1.36223,1.64902 1.21884,0 2.40183,-0.41225 l 0.41226,-0.1434 v -2.95748 l -2.65277,0.25094 q -0.80659,0.0717 -1.16507,0.46603 -0.35848,0.39433 -0.35848,1.14714 z"
       style="text-align:start;text-anchor:start;fill:#c4c3c6;fill-opacity:1;stroke-width:0.44810304"
       id="path5176" />
    <path
       d="m 221.79588,135.80113 q 0.59149,0 2.0075,0.21509 l 0.43018,0.0538 -0.0538,1.09337 q -1.43393,-0.16132 -2.11505,-0.16132 -1.52355,0 -2.0792,0.73489 -0.53772,0.71697 -0.53772,2.68862 0,1.95373 0.50187,2.72447 0.5198,0.77073 2.13297,0.77073 l 2.11505,-0.16131 0.0538,1.11129 q -1.66694,0.25094 -2.49145,0.25094 -2.09712,0 -2.90371,-1.07545 -0.78866,-1.07544 -0.78866,-3.62067 0,-2.56315 0.86036,-3.58482 0.86036,-1.0396 2.86786,-1.0396 z"
       style="text-align:start;text-anchor:start;fill:#c4c3c6;fill-opacity:1;stroke-width:0.44810304"
       id="path5178" />
    <path
       d="m 230.90131,137.14544 h -2.84994 v 4.28386 q 0,1.54148 0.21509,2.02543 0.23302,0.48395 1.07545,0.48395 l 1.59525,-0.10755 0.0896,1.1113 q -1.20092,0.19716 -1.82826,0.19716 -1.39808,0 -1.93581,-0.68111 -0.53772,-0.68112 -0.53772,-2.599 v -4.71404 h -1.27261 v -1.16507 h 1.27261 v -2.74239 h 1.32638 v 2.74239 h 2.84994 z"
       style="text-align:start;text-anchor:start;fill:#c4c3c6;fill-opacity:1;stroke-width:0.44810304"
       id="path5180" />
    <path
       d="m 232.55033,144.94243 v -8.96206 h 1.34431 v 8.96206 z m 0,-10.98749 v -1.5594 h 1.34431 v 1.5594 z"
       style="text-align:start;text-anchor:start;fill:#c4c3c6;fill-opacity:1;stroke-width:0.44810304"
       id="path5182" />
    <path
       d="m 237.82002,144.94243 h -1.34431 v -8.96206 h 1.32639 v 0.62734 q 1.45185,-0.80658 2.77824,-0.80658 1.79241,0 2.40183,0.9679 0.62734,0.9679 0.62734,3.44143 v 4.73197 h -1.32638 v -4.69612 q 0,-1.86411 -0.37641,-2.54523 -0.35848,-0.69904 -1.5594,-0.69904 -0.57357,0 -1.21884,0.17924 -0.62734,0.16132 -0.9679,0.32264 l -0.34056,0.16132 z"
       style="text-align:start;text-anchor:start;fill:#c4c3c6;fill-opacity:1;stroke-width:0.44810304"
       id="path5184" />
    <path
       d="m 249.5603,149.1546 q -2.1509,0 -3.01125,-0.5915 -0.84244,-0.57357 -0.84244,-2.11505 0,-0.73488 0.32264,-1.20091 0.32263,-0.4481 1.09337,-1.02168 -0.50188,-0.34055 -0.50188,-1.23676 0,-0.30471 0.44811,-1.12922 l 0.16131,-0.28679 q -1.416,-0.64526 -1.416,-2.70654 0,-3.06502 3.35181,-3.06502 0.86036,0 1.59524,0.17924 l 0.26887,0.0538 2.65277,-0.0717 v 1.14715 l -1.7028,-0.0359 q 0.5915,0.5915 0.5915,1.79241 0,1.68487 -0.84243,2.36599 -0.82451,0.66319 -2.61693,0.66319 -0.48395,0 -0.87828,-0.0717 -0.32263,0.78866 -0.32263,1.02168 0,0.55564 0.34056,0.69904 0.34056,0.12547 2.06127,0.12547 1.72072,0 2.47353,0.53772 0.75281,0.53772 0.75281,2.09712 0,2.84994 -3.97915,2.84994 z m -2.5273,-2.81409 q 0,0.94998 0.5198,1.30846 0.53772,0.37641 1.95373,0.37641 1.43393,0 2.04335,-0.39433 0.62734,-0.39433 0.62734,-1.32639 0,-0.91413 -0.4481,-1.18299 -0.44811,-0.26886 -1.75657,-0.26886 l -1.9358,-0.0896 q -0.5915,0.43018 -0.80659,0.75281 -0.19716,0.32263 -0.19716,0.82451 z m 0.12547,-7.47436 q 0,1.05752 0.46602,1.50563 0.48395,0.4481 1.57733,0.4481 1.09337,0 1.55939,-0.4481 0.46603,-0.44811 0.46603,-1.50563 0,-1.07545 -0.46603,-1.52355 -0.46602,-0.4481 -1.55939,-0.4481 -1.09338,0 -1.57733,0.46603 -0.46602,0.4481 -0.46602,1.50562 z"
       style="text-align:start;text-anchor:start;fill:#c4c3c6;fill-opacity:1;stroke-width:0.44810304"
       id="path5186" />
    <path
       d="m 266.1401,132.07291 v 12.86952 h -1.32638 v -0.60942 q -1.38016,0.78866 -2.72447,0.78866 -0.71697,0 -1.25469,-0.17924 -0.53772,-0.17924 -1.00375,-0.64527 -0.9679,-0.9679 -0.9679,-3.5669 0,-2.61692 0.86036,-3.76407 0.87828,-1.16506 2.88578,-1.16506 1.0396,0 2.20467,0.23301 v -3.96123 z m -5.26969,11.25635 q 0.28679,0.34056 0.60942,0.46602 0.32263,0.12547 0.82451,0.12547 0.5198,0 1.14714,-0.16131 0.64527,-0.17924 1.00375,-0.34056 l 0.35849,-0.16132 v -6.07628 q -1.14715,-0.21509 -2.13297,-0.21509 -1.36224,0 -1.89996,0.87829 -0.53773,0.86035 -0.53773,2.68861 0,2.0792 0.62735,2.79617 z"
       style="text-align:start;text-anchor:start;fill:#c4c3c6;fill-opacity:1;stroke-width:0.44810304"
       id="path5188" />
    <path
       d="m 275.0663,138.68691 v 4.58858 q 0.0538,0.66319 1.03959,0.78866 l -0.0538,1.05752 q -1.416,0 -2.13297,-0.71697 -1.61317,0.71697 -3.22634,0.71697 -1.23676,0 -1.88203,-0.69904 -0.64527,-0.69904 -0.64527,-2.0075 0,-1.30846 0.66319,-1.91788 0.66319,-0.62735 2.0792,-0.77074 l 2.81409,-0.26886 v -0.77074 q 0,-0.91413 -0.39433,-1.30846 -0.39434,-0.39433 -1.07545,-0.39433 -1.43393,0 -2.97541,0.17924 l -0.55564,0.0538 -0.0538,-1.02167 q 1.97166,-0.39433 3.49521,-0.39433 1.52355,0 2.20466,0.69904 0.69905,0.69904 0.69905,2.18674 z m -5.52063,3.65652 q 0,1.64902 1.36223,1.64902 1.21884,0 2.40183,-0.41225 l 0.41226,-0.1434 v -2.95748 l -2.65277,0.25094 q -0.80659,0.0717 -1.16507,0.46603 -0.35848,0.39433 -0.35848,1.14714 z"
       style="text-align:start;text-anchor:start;fill:#c4c3c6;fill-opacity:1;stroke-width:0.44810304"
       id="path5190" />
    <path
       d="m 282.36141,137.14544 h -2.84994 v 4.28386 q 0,1.54148 0.21509,2.02543 0.23302,0.48395 1.07545,0.48395 l 1.59525,-0.10755 0.0896,1.1113 q -1.20092,0.19716 -1.82826,0.19716 -1.39808,0 -1.93581,-0.68111 -0.53772,-0.68112 -0.53772,-2.599 v -4.71404 h -1.27261 v -1.16507 h 1.27261 v -2.74239 h 1.32638 v 2.74239 h 2.84994 z"
       style="text-align:start;text-anchor:start;fill:#c4c3c6;fill-opacity:1;stroke-width:0.44810304"
       id="path5192" />
    <path
       d="m 290.33764,138.68691 v 4.58858 q 0.0538,0.66319 1.0396,0.78866 l -0.0538,1.05752 q -1.41601,0 -2.13297,-0.71697 -1.61317,0.71697 -3.22634,0.71697 -1.23677,0 -1.88204,-0.69904 -0.64526,-0.69904 -0.64526,-2.0075 0,-1.30846 0.66319,-1.91788 0.66319,-0.62735 2.0792,-0.77074 l 2.81408,-0.26886 v -0.77074 q 0,-0.91413 -0.39433,-1.30846 -0.39433,-0.39433 -1.07544,-0.39433 -1.43393,0 -2.97541,0.17924 l -0.55565,0.0538 -0.0538,-1.02167 q 1.97165,-0.39433 3.4952,-0.39433 1.52356,0 2.20467,0.69904 0.69904,0.69904 0.69904,2.18674 z m -5.52063,3.65652 q 0,1.64902 1.36224,1.64902 1.21884,0 2.40183,-0.41225 l 0.41225,-0.1434 v -2.95748 l -2.65277,0.25094 q -0.80658,0.0717 -1.16506,0.46603 -0.35849,0.39433 -0.35849,1.14714 z"
       style="text-align:start;text-anchor:start;fill:#c4c3c6;fill-opacity:1;stroke-width:0.44810304"
       id="path5194" />
    <path
       d="m 298.65441,137.14544 v 7.79699 h -1.34431 v -7.79699 h -1.12922 v -1.16507 h 1.12922 v -0.80659 q 0,-1.89995 0.53772,-2.58107 0.53772,-0.69904 1.88203,-0.69904 l 1.81034,0.12547 -0.0179,1.11129 q -1.00375,-0.0358 -1.66695,-0.0358 -0.64527,0 -0.93205,0.43018 -0.26886,0.43018 -0.26886,1.66695 v 0.78866 h 2.59899 v 1.16507 z"
       style="text-align:start;text-anchor:start;fill:#c4c3c6;fill-opacity:1;stroke-width:0.44810304"
       id="path5196" />
    <path
       d="m 302.86657,144.94243 v -8.96206 h 1.32638 v 1.21884 q 1.5594,-1.07545 3.28012,-1.41601 v 1.36224 q -0.75282,0.14339 -1.57733,0.4481 -0.80658,0.30471 -1.23676,0.53772 l -0.4481,0.23302 v 6.57815 z"
       style="text-align:start;text-anchor:start;fill:#c4c3c6;fill-opacity:1;stroke-width:0.44810304"
       id="path5198" />
    <path
       d="m 308.49471,140.44347 q 0,-2.4556 0.87828,-3.54897 0.87829,-1.09337 2.95749,-1.09337 2.09712,0 2.95748,1.09337 0.87828,1.09337 0.87828,3.54897 0,2.45561 -0.82451,3.5669 -0.82451,1.1113 -3.01125,1.1113 -2.18675,0 -3.01126,-1.1113 -0.82451,-1.11129 -0.82451,-3.5669 z m 1.38016,-0.0179 q 0,1.95373 0.46603,2.74239 0.48395,0.78866 1.98958,0.78866 1.52355,0 1.98957,-0.77074 0.46603,-0.78866 0.46603,-2.76031 0,-1.97165 -0.5198,-2.70654 -0.5198,-0.75282 -1.9358,-0.75282 -1.39809,0 -1.93581,0.75282 -0.5198,0.73489 -0.5198,2.70654 z"
       style="text-align:start;text-anchor:start;fill:#c4c3c6;fill-opacity:1;stroke-width:0.44810304"
       id="path5200" />
    <path
       d="m 319.69728,144.94243 h -1.34431 v -8.96206 h 1.32639 v 0.62734 q 1.34431,-0.80658 2.61692,-0.80658 1.66694,0 2.33013,0.91413 0.5915,-0.35849 1.52355,-0.62735 0.94998,-0.28678 1.66695,-0.28678 1.79241,0 2.40183,0.9679 0.62734,0.94998 0.62734,3.44143 v 4.73197 h -1.3443 v -4.69612 q 0,-1.86411 -0.35849,-2.54523 -0.35848,-0.69904 -1.52355,-0.69904 -0.59149,0 -1.21884,0.17924 -0.62734,0.16132 -0.9679,0.32264 l -0.34056,0.16132 q 0.23302,0.59149 0.23302,2.61692 v 4.66027 h -1.34431 v -4.62442 q 0,-1.93581 -0.35849,-2.61693 -0.34055,-0.69904 -1.52355,-0.69904 -0.57357,0 -1.18299,0.17924 -0.59149,0.16132 -0.91413,0.32264 l -0.30471,0.16132 z"
       style="text-align:start;text-anchor:start;fill:#c4c3c6;fill-opacity:1;stroke-width:0.44810304"
       id="path5202" />
    <path
       d="m 340.93732,133.56061 q -2.68862,0 -2.68862,2.02543 0,1.12922 0.60942,1.5594 0.62734,0.41225 2.50938,0.84243 1.89995,0.41225 2.68862,1.09337 0.78866,0.66319 0.78866,2.20467 0,3.81784 -3.96123,3.81784 -1.30846,0 -3.28012,-0.30471 l -0.64527,-0.0896 0.1434,-1.14715 q 2.43768,0.32264 3.71029,0.32264 2.65277,0 2.65277,-2.49146 0,-1.00375 -0.5915,-1.43393 -0.57357,-0.4481 -2.16881,-0.75281 -2.09713,-0.4481 -2.97541,-1.14714 -0.87828,-0.71697 -0.87828,-2.38391 0,-3.33389 3.99708,-3.33389 1.30846,0 3.13672,0.26886 l 0.60942,0.0896 -0.12547,1.16507 q -2.49145,-0.30471 -3.53105,-0.30471 z"
       style="text-align:start;text-anchor:start;fill:#c4c3c6;fill-opacity:1;stroke-width:0.44810304"
       id="path5204" />
    <path
       d="m 352.588,135.98037 h 1.34431 v 8.96206 H 352.588 v -0.62735 q -1.34431,0.80659 -2.65277,0.80659 -1.82826,0 -2.43768,-0.94998 -0.5915,-0.94998 -0.5915,-3.51313 v -4.67819 h 1.34431 v 4.66027 q 0,1.95373 0.34056,2.61692 0.34056,0.66319 1.54147,0.66319 0.5915,0 1.20092,-0.16131 0.60942,-0.17924 0.93205,-0.34056 l 0.32264,-0.16132 z"
       style="text-align:start;text-anchor:start;fill:#c4c3c6;fill-opacity:1;stroke-width:0.44810304"
       id="path5206" />
    <path
       d="m 360.4746,135.80113 q 1.81034,0 2.5273,1.0396 0.73489,1.02167 0.73489,3.60274 0,2.58108 -0.91413,3.6386 -0.8962,1.0396 -3.31596,1.0396 -0.75281,0 -2.49145,-0.14339 l -0.50188,-0.0538 v -12.85159 h 1.32639 v 4.35556 q 1.36223,-0.62734 2.63484,-0.62734 z m -0.98582,8.11962 q 1.75656,0 2.31221,-0.78866 0.57357,-0.80658 0.57357,-2.70654 0,-1.89996 -0.4481,-2.65277 -0.44811,-0.77074 -1.59525,-0.77074 -1.0396,0 -2.13297,0.39433 l -0.35848,0.12547 v 6.30929 q 1.16507,0.0896 1.64902,0.0896 z"
       style="text-align:start;text-anchor:start;fill:#c4c3c6;fill-opacity:1;stroke-width:0.44810304"
       id="path5208" />
    <path
       d="m 368.75553,137.00204 q -1.95373,0 -1.95373,1.36224 0,0.62734 0.4481,0.8962 0.44811,0.25094 2.04335,0.53773 1.59525,0.26886 2.25844,0.77073 0.6632,0.50188 0.6632,1.88204 0,1.38015 -0.89621,2.02542 -0.87828,0.64527 -2.58107,0.64527 -1.1113,0 -2.61693,-0.25094 l -0.53772,-0.0896 0.0717,-1.16507 q 2.04335,0.30471 3.08295,0.30471 1.03959,0 1.57732,-0.32263 0.55565,-0.34056 0.55565,-1.1113 0,-0.78866 -0.46603,-1.05752 -0.46603,-0.28679 -2.04335,-0.53772 -1.57732,-0.25094 -2.24052,-0.73489 -0.66319,-0.48395 -0.66319,-1.79241 0,-1.30847 0.91413,-1.93581 0.93206,-0.62734 2.31221,-0.62734 1.09337,0 2.74239,0.25093 l 0.50188,0.0896 -0.0358,1.14715 q -1.98958,-0.28679 -3.13672,-0.28679 z"
       style="text-align:start;text-anchor:start;fill:#c4c3c6;fill-opacity:1;stroke-width:0.44810304"
       id="path5210" />
    <path
       d="m 378.91848,137.14544 h -2.84994 v 4.28386 q 0,1.54148 0.21509,2.02543 0.23301,0.48395 1.07545,0.48395 l 1.59524,-0.10755 0.0896,1.1113 q -1.20092,0.19716 -1.82827,0.19716 -1.39808,0 -1.9358,-0.68111 -0.53772,-0.68112 -0.53772,-2.599 v -4.71404 h -1.27262 v -1.16507 h 1.27262 v -2.74239 h 1.32638 v 2.74239 h 2.84994 z"
       style="text-align:start;text-anchor:start;fill:#c4c3c6;fill-opacity:1;stroke-width:0.44810304"
       id="path5212" />
    <path
       d="m 380.56748,144.94243 v -8.96206 h 1.32638 v 1.21884 q 1.5594,-1.07545 3.28012,-1.41601 v 1.36224 q -0.75281,0.14339 -1.57732,0.4481 -0.80659,0.30471 -1.23677,0.53772 l -0.4481,0.23302 v 6.57815 z"
       style="text-align:start;text-anchor:start;fill:#c4c3c6;fill-opacity:1;stroke-width:0.44810304"
       id="path5214" />
    <path
       d="m 393.09642,138.68691 v 4.58858 q 0.0538,0.66319 1.0396,0.78866 l -0.0538,1.05752 q -1.416,0 -2.13297,-0.71697 -1.61317,0.71697 -3.22634,0.71697 -1.23676,0 -1.88203,-0.69904 -0.64527,-0.69904 -0.64527,-2.0075 0,-1.30846 0.66319,-1.91788 0.66319,-0.62735 2.0792,-0.77074 l 2.81409,-0.26886 v -0.77074 q 0,-0.91413 -0.39433,-1.30846 -0.39433,-0.39433 -1.07545,-0.39433 -1.43393,0 -2.97541,0.17924 l -0.55564,0.0538 -0.0538,-1.02167 q 1.97166,-0.39433 3.49521,-0.39433 1.52355,0 2.20467,0.69904 0.69904,0.69904 0.69904,2.18674 z m -5.52063,3.65652 q 0,1.64902 1.36223,1.64902 1.21884,0 2.40183,-0.41225 l 0.41226,-0.1434 v -2.95748 l -2.65277,0.25094 q -0.80659,0.0717 -1.16507,0.46603 -0.35848,0.39433 -0.35848,1.14714 z"
       style="text-align:start;text-anchor:start;fill:#c4c3c6;fill-opacity:1;stroke-width:0.44810304"
       id="path5216" />
    <path
       d="m 400.39153,137.14544 h -2.84994 v 4.28386 q 0,1.54148 0.21509,2.02543 0.23302,0.48395 1.07545,0.48395 l 1.59525,-0.10755 0.0896,1.1113 q -1.20092,0.19716 -1.82826,0.19716 -1.39808,0 -1.93581,-0.68111 -0.53772,-0.68112 -0.53772,-2.599 v -4.71404 h -1.27261 v -1.16507 h 1.27261 v -2.74239 h 1.32638 v 2.74239 h 2.84994 z"
       style="text-align:start;text-anchor:start;fill:#c4c3c6;fill-opacity:1;stroke-width:0.44810304"
       id="path5218" />
    <path
       d="m 408.13473,143.83113 0.5198,-0.0538 0.0358,1.05752 q -2.04335,0.28679 -3.4952,0.28679 -1.93581,0 -2.74239,-1.1113 -0.80659,-1.12922 -0.80659,-3.4952 0,-4.71404 3.74614,-4.71404 1.81034,0 2.70655,1.02167 0.8962,1.00375 0.8962,3.17257 l -0.0717,1.02168 h -5.91496 q 0,1.4877 0.53772,2.20466 0.53772,0.71697 1.86411,0.71697 1.34431,0 2.72446,-0.10755 z m -0.48395,-3.88953 q 0,-1.64902 -0.53772,-2.33014 -0.5198,-0.68111 -1.72072,-0.68111 -1.18299,0 -1.79241,0.71696 -0.59149,0.71697 -0.60942,2.29429 z"
       style="text-align:start;text-anchor:start;fill:#c4c3c6;fill-opacity:1;stroke-width:0.44810304"
       id="path5220" />
    <path
       d="m 418.99673,135.80113 q 1.81033,0 2.5273,1.0396 0.73489,1.02167 0.73489,3.60274 0,2.58108 -0.91413,3.6386 -0.89621,1.0396 -3.31596,1.0396 -0.75282,0 -2.49146,-0.14339 l -0.50187,-0.0538 v -12.85159 h 1.32638 v 4.35556 q 1.36224,-0.62734 2.63485,-0.62734 z m -0.98583,8.11962 q 1.75657,0 2.31221,-0.78866 0.57358,-0.80658 0.57358,-2.70654 0,-1.89996 -0.44811,-2.65277 -0.4481,-0.77074 -1.59524,-0.77074 -1.0396,0 -2.13297,0.39433 l -0.35849,0.12547 v 6.30929 q 1.16507,0.0896 1.64902,0.0896 z"
       style="text-align:start;text-anchor:start;fill:#c4c3c6;fill-opacity:1;stroke-width:0.44810304"
       id="path5222" />
    <path
       d="m 424.57111,144.94243 v -12.86952 h 1.34431 v 12.86952 z"
       style="text-align:start;text-anchor:start;fill:#c4c3c6;fill-opacity:1;stroke-width:0.44810304"
       id="path5224" />
    <path
       d="m 428.20971,140.44347 q 0,-2.4556 0.87828,-3.54897 0.87828,-1.09337 2.95748,-1.09337 2.09712,0 2.95748,1.09337 0.87828,1.09337 0.87828,3.54897 0,2.45561 -0.82451,3.5669 -0.82451,1.1113 -3.01125,1.1113 -2.18674,0 -3.01125,-1.1113 -0.82451,-1.11129 -0.82451,-3.5669 z m 1.38016,-0.0179 q 0,1.95373 0.46602,2.74239 0.48396,0.78866 1.98958,0.78866 1.52355,0 1.98958,-0.77074 0.46603,-0.78866 0.46603,-2.76031 0,-1.97165 -0.5198,-2.70654 -0.5198,-0.75282 -1.93581,-0.75282 -1.39808,0 -1.9358,0.75282 -0.5198,0.73489 -0.5198,2.70654 z"
       style="text-align:start;text-anchor:start;fill:#c4c3c6;fill-opacity:1;stroke-width:0.44810304"
       id="path5226" />
    <path
       d="m 441.41978,135.80113 q 0.5915,0 2.0075,0.21509 l 0.43018,0.0538 -0.0538,1.09337 q -1.43393,-0.16132 -2.11505,-0.16132 -1.52355,0 -2.0792,0.73489 -0.53772,0.71697 -0.53772,2.68862 0,1.95373 0.50187,2.72447 0.5198,0.77073 2.13297,0.77073 l 2.11505,-0.16131 0.0538,1.11129 q -1.66694,0.25094 -2.49145,0.25094 -2.09712,0 -2.90371,-1.07545 -0.78866,-1.07544 -0.78866,-3.62067 0,-2.56315 0.86036,-3.58482 0.86036,-1.0396 2.86786,-1.0396 z"
       style="text-align:start;text-anchor:start;fill:#c4c3c6;fill-opacity:1;stroke-width:0.44810304"
       id="path5228" />
    <path
       d="m 447.22716,144.94243 h -1.34431 v -12.86952 h 1.34431 v 7.59983 l 1.39808,-0.0717 2.56315,-3.62067 h 1.52355 l -2.92163,4.12255 3.0471,4.83951 h -1.52355 l -2.6707,-4.1584 -1.416,0.0538 z"
       style="text-align:start;text-anchor:start;fill:#c4c3c6;fill-opacity:1;stroke-width:0.44810304"
       id="path5230" />
    <path
       d="m 457.58726,135.80113 q 0.5915,0 2.0075,0.21509 l 0.43018,0.0538 -0.0538,1.09337 q -1.43393,-0.16132 -2.11505,-0.16132 -1.52355,0 -2.0792,0.73489 -0.53772,0.71697 -0.53772,2.68862 0,1.95373 0.50187,2.72447 0.5198,0.77073 2.13298,0.77073 l 2.11504,-0.16131 0.0538,1.11129 q -1.66694,0.25094 -2.49145,0.25094 -2.09712,0 -2.90371,-1.07545 -0.78866,-1.07544 -0.78866,-3.62067 0,-2.56315 0.86036,-3.58482 0.86036,-1.0396 2.86786,-1.0396 z"
       style="text-align:start;text-anchor:start;fill:#c4c3c6;fill-opacity:1;stroke-width:0.44810304"
       id="path5232" />
    <path
       d="m 463.39467,144.94243 h -1.34431 v -12.86952 h 1.34431 v 4.40933 q 1.43393,-0.68111 2.76031,-0.68111 1.79242,0 2.40184,0.9679 0.62734,0.9679 0.62734,3.44143 v 4.73197 h -1.34431 v -4.69612 q 0,-1.86411 -0.37641,-2.54523 -0.35848,-0.69904 -1.54147,-0.69904 -1.12922,0 -2.18674,0.41226 l -0.34056,0.12547 z"
       style="text-align:start;text-anchor:start;fill:#c4c3c6;fill-opacity:1;stroke-width:0.44810304"
       id="path5234" />
    <path
       d="m 478.00279,138.68691 v 4.58858 q 0.0538,0.66319 1.0396,0.78866 l -0.0538,1.05752 q -1.416,0 -2.13297,-0.71697 -1.61317,0.71697 -3.22634,0.71697 -1.23676,0 -1.88203,-0.69904 -0.64527,-0.69904 -0.64527,-2.0075 0,-1.30846 0.66319,-1.91788 0.6632,-0.62735 2.0792,-0.77074 l 2.81409,-0.26886 v -0.77074 q 0,-0.91413 -0.39433,-1.30846 -0.39433,-0.39433 -1.07545,-0.39433 -1.43393,0 -2.9754,0.17924 l -0.55565,0.0538 -0.0538,-1.02167 q 1.97165,-0.39433 3.4952,-0.39433 1.52355,0 2.20467,0.69904 0.69904,0.69904 0.69904,2.18674 z m -5.52063,3.65652 q 0,1.64902 1.36223,1.64902 1.21884,0 2.40183,-0.41225 l 0.41226,-0.1434 v -2.95748 l -2.65277,0.25094 q -0.80659,0.0717 -1.16507,0.46603 -0.35848,0.39433 -0.35848,1.14714 z"
       style="text-align:start;text-anchor:start;fill:#c4c3c6;fill-opacity:1;stroke-width:0.44810304"
       id="path5236" />
    <path
       d="m 480.65555,144.94243 v -8.96206 h 1.34431 v 8.96206 z m 0,-10.98749 v -1.5594 h 1.34431 v 1.5594 z"
       style="text-align:start;text-anchor:start;fill:#c4c3c6;fill-opacity:1;stroke-width:0.44810304"
       id="path5238" />
    <path
       d="m 485.92525,144.94243 h -1.34431 v -8.96206 h 1.32638 v 0.62734 q 1.45186,-0.80658 2.77824,-0.80658 1.79241,0 2.40183,0.9679 0.62735,0.9679 0.62735,3.44143 v 4.73197 h -1.32639 v -4.69612 q 0,-1.86411 -0.3764,-2.54523 -0.35849,-0.69904 -1.5594,-0.69904 -0.57357,0 -1.21884,0.17924 -0.62735,0.16132 -0.9679,0.32264 l -0.34056,0.16132 z"
       style="text-align:start;text-anchor:start;fill:#c4c3c6;fill-opacity:1;stroke-width:0.44810304"
       id="path5240" />
    <path
       d="m 497.02027,137.00204 q -1.95373,0 -1.95373,1.36224 0,0.62734 0.4481,0.8962 0.44811,0.25094 2.04335,0.53773 1.59525,0.26886 2.25844,0.77073 0.6632,0.50188 0.6632,1.88204 0,1.38015 -0.89621,2.02542 -0.87828,0.64527 -2.58107,0.64527 -1.1113,0 -2.61693,-0.25094 l -0.53772,-0.0896 0.0717,-1.16507 q 2.04335,0.30471 3.08295,0.30471 1.03959,0 1.57732,-0.32263 0.55565,-0.34056 0.55565,-1.1113 0,-0.78866 -0.46603,-1.05752 -0.46603,-0.28679 -2.04335,-0.53772 -1.57732,-0.25094 -2.24052,-0.73489 -0.66319,-0.48395 -0.66319,-1.79241 0,-1.30847 0.91413,-1.93581 0.93206,-0.62734 2.31221,-0.62734 1.09337,0 2.74239,0.25093 l 0.50188,0.0896 -0.0358,1.14715 q -1.98958,-0.28679 -3.13672,-0.28679 z"
       style="text-align:start;text-anchor:start;fill:#c4c3c6;fill-opacity:1;stroke-width:0.44810304"
       id="path5242" />
  </g>
</svg>
