<?xml version="1.0" encoding="UTF-8"?>
<svg width="882px" height="300px" viewBox="0 0 882 300" version="1.1" xmlns="http://www.w3.org/2000/svg" xmlns:xlink="http://www.w3.org/1999/xlink">
    <!-- Generator: Sketch 61 (89581) - https://sketch.com -->
    <title>query-node</title>
    <desc>Created with Sketch.</desc>
    <g id="query-node" stroke="none" stroke-width="1" fill="none" fill-rule="evenodd">
        <rect id="Rectangle" fill="#000000" fill-rule="nonzero" x="0" y="0" width="882" height="210"></rect>
        <g id="Group-2" transform="translate(514.999670, 0.000000)" fill="#1F232C">
            <rect id="Rectangle" fill-rule="nonzero" x="105.00033" y="105" width="52.5" height="52.5"></rect>
            <path d="M122.50066,52.5 L122.50066,105 L116.66733,105 L116.66733,52.5 L122.50066,52.5 Z M134.16666,52.5 L134.16666,105 L128.33333,105 L128.33333,52.5 L134.16666,52.5 Z M145.83366,52.5 L145.83366,105 L140.00033,105 L140.00033,52.5 L145.83366,52.5 Z M157.50066,52.5 L157.50066,105 L151.66733,105 L151.66733,52.5 L157.50066,52.5 Z M110.83701,52.5 L110.83701,105 L105.00033,105 L105.00033,52.5 L110.83701,52.5 Z" id="Shape" fill-rule="nonzero"></path>
            <path d="M40.83333,105 L40.83333,157.5 L35,157.5 L35,105 L40.83333,105 Z M29.16733,105 L29.16733,157.5 L23.334,157.5 L23.334,105 L29.16733,105 Z M17.50033,105 L17.50033,157.5 L11.667,157.5 L11.667,105 L17.50033,105 Z M5.83333,105 L5.83333,157.5 L-6.92779167e-14,157.5 L-6.92779167e-14,105 L5.83333,105 Z M52.50033,105 L52.50033,157.5 L46.66365,157.5 L46.66365,105 L52.50033,105 Z" id="Shape" fill-rule="nonzero"></path>
            <path d="M355.50533,0.9844 L355.50533,53.4844 L349.672,53.4844 L349.672,0.9844 L355.50533,0.9844 Z M343.83833,0.9844 L343.83833,53.4844 L338.005,53.4844 L338.005,0.9844 L343.83833,0.9844 Z M332.17233,0.9844 L332.17233,53.4844 L326.339,53.4844 L326.339,0.9844 L332.17233,0.9844 Z M320.50533,0.9844 L320.50533,53.4844 L314.672,53.4844 L314.672,0.9844 L320.50533,0.9844 Z M367.17233,0.9844 L367.17233,53.4844 L361.33565,53.4844 L361.33565,0.9844 L367.17233,0.9844 Z" id="Shape" fill-rule="nonzero"></path>
            <path d="M52.50033,163.333 L52.50033,157.5 C81.49533,157.5 105.00033,181.005 105.00033,210 L99.16733,210 C99.16733,184.227 78.27333,163.333 52.50033,163.333 Z M52.50033,175 L52.50033,169.166 C75.05233,169.166 93.33333,187.448 93.33333,210 L87.50033,210 C87.50033,190.67 71.83033,175 52.50033,175 Z M52.50033,180.834 L52.50033,186.667 C65.38733,186.667 75.83333,197.114 75.83333,210 L81.66733,210 C81.66733,193.892 68.60833,180.834 52.50033,180.834 Z M52.50033,198.333 L52.50033,192.5 C62.16533,192.5 70.00033,200.335 70.00033,210 L64.16733,210 C64.16733,203.557 58.94333,198.333 52.50033,198.333 Z M52.50033,210 L52.50033,204.166 C55.72233,204.166 58.33333,206.778 58.33333,210 L52.50033,210 Z" id="Shape"></path>
            <path d="M262.00033,110.833 L262.00033,105 C290.99533,105 314.50033,128.505 314.50033,157.5 L308.66733,157.5 C308.66733,131.727 287.77333,110.833 262.00033,110.833 Z M262.00033,122.5 L262.00033,116.667 C284.55233,116.667 302.83333,134.949 302.83333,157.5 L297.00033,157.5 C297.00033,138.17 281.33033,122.5 262.00033,122.5 Z M262.00033,128.333 L262.00033,134.167 C274.88733,134.167 285.33333,144.613 285.33333,157.5 L291.16733,157.5 C291.16733,141.392 278.10833,128.333 262.00033,128.333 Z M262.00033,145.833 L262.00033,140 C271.66533,140 279.50033,147.835 279.50033,157.5 L273.66733,157.5 C273.66733,151.056 268.44333,145.833 262.00033,145.833 Z M262.00033,157.5 L262.00033,151.667 C265.22233,151.667 267.83333,154.279 267.83333,157.5 L262.00033,157.5 Z" id="Shape"></path>
            <path d="M214.11233,52.5 L210.00033,52.5 L210.00033,48.3875 L258.38733,0 L262.50033,0 L262.50033,4.1125 L214.11233,52.5 Z M250.13333,0 L241.87933,0 L210.00033,31.8791 L210.00033,40.1333 L250.13333,0 Z M233.62533,0 L225.37133,0 L210.00033,15.3708 L210.00033,23.625 L233.62533,0 Z M210.00033,0 L210.00033,7.11666 L217.11633,0 L210.00033,0 Z M262.50033,20.6208 L262.50033,12.3667 L222.36633,52.5 L230.62133,52.5 L262.50033,20.6208 Z M262.50033,37.1291 L262.50033,28.875 L238.87533,52.5 L247.12933,52.5 L262.50033,37.1291 Z M262.50033,45.3833 L255.38333,52.5 L262.50033,52.5 L262.50033,45.3833 Z" id="Shape" fill-rule="nonzero"></path>
            <path d="M157.50033,105 L210.00033,105 L210.00033,52.5 C181.00533,52.5 157.50033,76.0051 157.50033,105 Z" id="Path" fill-rule="nonzero"></path>
            <path d="M262.50033,157.5 L262.50033,105 L210.00033,105 C210.00033,133.995 233.50533,157.5 262.50033,157.5 Z" id="Path" fill-rule="nonzero"></path>
            <path d="M110.83733,204.164 L110.83733,210.001 L105.00033,210.001 L105.00033,204.164 L110.83733,204.164 Z M122.49433,204.164 L122.49433,210.001 L116.65833,210.001 L116.65833,204.164 L122.49433,204.164 Z M134.16833,204.164 L134.16833,210.001 L128.33133,210.001 L128.33133,204.164 L134.16833,204.164 Z M145.82633,204.164 L145.82633,210.001 L139.99033,210.001 L139.99033,204.164 L145.82633,204.164 Z M157.50033,204.164 L157.50033,210.001 L151.66333,210.001 L151.66333,204.164 L157.50033,204.164 Z M151.66333,198.326 L151.66333,204.163 L145.82633,204.163 L145.82633,198.326 L140.00533,198.326 L140.00633,204.163 L134.16933,204.163 L134.16833,198.326 L128.33133,198.326 L128.33233,204.163 L122.49533,204.163 L122.49533,198.326 L128.33233,198.326 L128.33233,192.505 L122.49533,192.505 L122.49533,186.668 L128.33233,186.668 L128.33133,180.832 L134.16833,180.832 L134.16933,186.668 L139.99033,186.668 L139.99033,180.832 L145.82633,180.832 L145.82633,186.668 L151.66333,186.668 L151.66333,180.832 L157.50033,180.832 L157.50033,186.669 L151.66333,186.669 L151.66333,192.489 L157.50033,192.489 L157.50033,198.326 L151.66333,198.326 Z M110.83733,180.832 L110.83733,186.668 L116.65833,186.668 L116.65833,180.832 L122.49433,180.832 L122.49433,186.669 L116.67333,186.669 L116.67333,192.489 L122.49433,192.489 L122.49433,198.326 L116.67333,198.326 L116.67333,204.163 L110.83733,204.163 L110.83733,198.326 L105.00033,198.326 L105.00033,192.489 L110.83733,192.489 L110.83733,186.669 L105.00033,186.669 L105.00033,180.832 L110.83733,180.832 Z M139.99033,192.505 L134.16933,192.505 L134.16933,198.326 L139.99033,198.325 L139.99033,192.505 Z M116.65833,192.505 L110.83733,192.505 L110.83733,198.326 L116.65833,198.325 L116.65833,192.505 Z M134.16833,186.669 L128.33133,186.669 L128.33133,192.489 L134.16833,192.489 L134.16833,186.669 Z M145.82633,186.669 L140.00533,186.669 L140.00533,192.489 L145.82633,192.489 L145.82633,186.669 Z M116.67333,163.337 L116.67333,169.158 L122.49433,169.158 L122.49433,174.995 L116.67333,174.995 L116.67333,180.832 L110.83733,180.832 L110.83733,174.995 L105.00033,174.995 L105.00033,169.158 L110.83733,169.158 L110.83733,163.337 L116.67333,163.337 Z M128.33233,163.337 L128.33133,169.158 L134.16833,169.158 L134.16933,163.337 L140.00633,163.337 L140.00533,169.158 L145.82633,169.158 L145.82633,163.337 L151.66333,163.337 L151.66333,169.158 L157.50033,169.158 L157.50033,174.995 L151.66333,174.995 L151.66333,180.832 L145.82633,180.832 L145.82633,174.995 L140.00533,174.995 L140.00633,180.832 L134.16933,180.832 L134.16833,174.995 L128.33133,174.995 L128.33233,180.832 L122.49533,180.832 L122.49533,174.995 L128.33233,174.995 L128.33233,169.174 L122.49533,169.174 L122.49533,163.337 L128.33233,163.337 Z M139.99033,169.174 L134.16933,169.174 L134.16933,174.995 L139.99033,174.994 L139.99033,169.174 Z M116.65833,169.174 L110.83733,169.174 L110.83733,174.995 L116.65833,174.994 L116.65833,169.174 Z M151.66333,169.174 L145.82633,169.174 L145.82633,174.995 L151.66333,174.995 L151.66333,169.174 Z M110.83733,157.5 L110.83733,163.337 L105.00033,163.337 L105.00033,157.5 L110.83733,157.5 Z M122.49433,157.5 L122.49433,163.337 L116.65833,163.337 L116.65833,157.5 L122.49433,157.5 Z M134.16833,157.5 L134.16833,163.337 L128.33133,163.337 L128.33133,157.5 L134.16833,157.5 Z M145.82633,157.5 L145.82633,163.337 L139.99033,163.337 L139.99033,157.5 L145.82633,157.5 Z M157.50033,157.5 L157.50033,163.337 L151.66333,163.337 L151.66333,157.5 L157.50033,157.5 Z M151.66333,192.505 L145.82633,192.505 L145.82633,198.326 L151.66333,198.326 L151.66333,192.505 Z" id="Combined-Shape" fill-rule="nonzero"></path>
        </g>
        <path d="M62.4296875,84.6875 C62.4296875,82.093737 62.7031223,79.7500105 63.25,77.65625 C63.7968777,75.5624895 64.6367131,73.7695387 65.7695312,72.2773438 C66.9023494,70.7851488 68.3476475,69.640629 70.1054688,68.84375 C71.86329,68.046871 73.9765502,67.6484375 76.4453125,67.6484375 C78.9140748,67.6484375 81.027335,68.046871 82.7851562,68.84375 C84.5429775,69.640629 85.9882756,70.7851488 87.1210938,72.2773438 C88.2539119,73.7695387 89.0937473,75.5624895 89.640625,77.65625 C90.1875027,79.7500105 90.4609375,82.093737 90.4609375,84.6875 C90.4609375,86.9843865 90.2460959,89.1015528 89.8164062,91.0390625 C89.3867166,92.9765722 88.6875048,94.695305 87.71875,96.1953125 L92.6640625,101 L89.6875,103.976562 L84.8828125,99.3125 C82.773427,100.906258 79.9609551,101.710937 76.4453125,101.726562 C73.9765502,101.726562 71.86329,101.324223 70.1054688,100.519531 C68.3476475,99.7148397 66.9023494,98.5703199 65.7695312,97.0859375 C64.6367131,95.6015551 63.7968777,93.8125105 63.25,91.71875 C62.7031223,89.6249895 62.4296875,87.281263 62.4296875,84.6875 Z M67.46875,89.7265625 C67.46875,90.9765687 67.6992164,92.0898389 68.1601562,93.0664062 C68.6210961,94.0429736 69.2617146,94.882809 70.0820312,95.5859375 C70.9023479,96.289066 71.8554633,96.8242169 72.9414062,97.1914062 C74.0273492,97.5585956 75.1953063,97.7421875 76.4453125,97.7421875 C77.6953187,97.7421875 78.8632758,97.5585956 79.9492188,97.1914062 C81.0351617,96.8242169 81.9882771,96.289066 82.8085938,95.5859375 C83.6289104,94.882809 84.2695289,94.0429736 84.7304688,93.0664062 C85.1914086,92.0898389 85.421875,90.9765687 85.421875,89.7265625 L85.421875,79.6484375 C85.421875,78.3984313 85.1914086,77.2851611 84.7304688,76.3085938 C84.2695289,75.3320264 83.6289104,74.492191 82.8085938,73.7890625 C81.9882771,73.085934 81.0351617,72.5507831 79.9492188,72.1835938 C78.8632758,71.8164044 77.6953187,71.6328125 76.4453125,71.6328125 C75.1953063,71.6328125 74.0273492,71.8164044 72.9414062,72.1835938 C71.8554633,72.5507831 70.9023479,73.085934 70.0820312,73.7890625 C69.2617146,74.492191 68.6210961,75.3320264 68.1601562,76.3085938 C67.6992164,77.2851611 67.46875,78.3984313 67.46875,79.6484375 L67.46875,89.7265625 Z M97.46875,92.84375 L97.46875,76.53125 L101.78125,76.53125 L101.78125,92.3515625 C101.78125,94.1171963 102.124997,95.5195261 102.8125,96.5585938 C103.500003,97.5976614 104.757803,98.1171875 106.585938,98.1171875 C108.414072,98.1171875 109.863276,97.4375068 110.933594,96.078125 C112.003912,94.7187432 112.539062,92.9687607 112.539062,90.828125 L112.539062,76.53125 L116.851562,76.53125 L116.851562,101 L112.539062,101 L112.539062,96.96875 C111.867184,98.4062572 110.96875,99.5351521 109.84375,100.355469 C108.718744,101.175785 107.234384,101.585938 105.390625,101.585938 C104.265619,101.585938 103.214849,101.425783 102.238281,101.105469 C101.261714,100.785155 100.421879,100.273441 99.71875,99.5703125 C99.0156215,98.867184 98.4648457,97.960943 98.0664062,96.8515625 C97.6679668,95.742182 97.46875,94.4062578 97.46875,92.84375 Z M123.53125,88.765625 C123.53125,86.9062407 123.761716,85.1836017 124.222656,83.5976562 C124.683596,82.0117108 125.371089,80.6601618 126.285156,79.5429688 C127.199223,78.4257757 128.304681,77.5468782 129.601562,76.90625 C130.898444,76.2656218 132.390617,75.9453125 134.078125,75.9453125 C135.843759,75.9453125 137.382806,76.249997 138.695312,76.859375 C140.007819,77.468753 141.093746,78.300776 141.953125,79.3554688 C142.812504,80.4101615 143.460935,81.6484304 143.898438,83.0703125 C144.33594,84.4921946 144.554688,86.0234293 144.554688,87.6640625 L144.554688,89.9609375 L128.078125,89.9609375 L128.078125,92.5625 C128.078125,93.4531295 128.246092,94.2421841 128.582031,94.9296875 C128.91797,95.6171909 129.374997,96.1992164 129.953125,96.6757812 C130.53125,97.1523461 131.179684,97.5117175 131.898438,97.7539062 C132.617191,97.996095 133.359371,98.1171875 134.125,98.1171875 C135.656258,98.1171875 136.984369,97.7265664 138.109375,96.9453125 C139.234381,96.1640586 139.874999,94.9218835 140.03125,93.21875 L144.367188,93.21875 C144.273437,94.5312566 143.92969,95.6992136 143.335938,96.7226562 C142.742185,97.7460989 141.972661,98.6171839 141.027344,99.3359375 C140.082027,100.054691 139.015631,100.609373 137.828125,101 C136.640619,101.390627 135.390632,101.585938 134.078125,101.585938 C132.312491,101.585938 130.769538,101.265628 129.449219,100.625 C128.1289,99.9843718 127.027348,99.1015681 126.144531,97.9765625 C125.261714,96.8515569 124.605471,95.5078203 124.175781,93.9453125 C123.746092,92.3828047 123.53125,90.6562595 123.53125,88.765625 Z M128.078125,86.515625 L140.078125,86.515625 L140.078125,85.15625 C140.078125,84.2656205 139.91797,83.4609411 139.597656,82.7421875 C139.277342,82.0234339 138.839847,81.414065 138.285156,80.9140625 C137.730466,80.41406 137.089847,80.0351575 136.363281,79.7773438 C135.636715,79.51953 134.875004,79.390625 134.078125,79.390625 C133.281246,79.390625 132.523441,79.51953 131.804688,79.7773438 C131.085934,80.0351575 130.445315,80.41406 129.882812,80.9140625 C129.32031,81.414065 128.878908,82.0234339 128.558594,82.7421875 C128.23828,83.4609411 128.078125,84.2656205 128.078125,85.15625 L128.078125,86.515625 Z M151.117188,101 L151.117188,76.53125 L162.882812,76.53125 L162.882812,80.2578125 L155.429688,80.2578125 L155.429688,101 L151.117188,101 Z M165.695312,76.53125 L170.359375,76.53125 L176.734375,95.6796875 L176.945312,95.6796875 L183.507812,76.53125 L187.984375,76.53125 L175.984375,109.15625 L167.617188,109.15625 L167.617188,105.453125 L173.242188,105.453125 L174.789062,101 L165.695312,76.53125 Z M205.867188,101 L205.867188,68.3515625 L212.3125,68.3515625 L225.789062,95.46875 L226,95.46875 L226,68.3515625 L230.40625,68.3515625 L230.40625,101 L223.984375,101 L210.484375,73.7421875 L210.296875,73.7421875 L210.296875,101 L205.867188,101 Z M237.507812,88.765625 C237.507812,86.9062407 237.730467,85.1836017 238.175781,83.5976562 C238.621096,82.0117108 239.300777,80.6601618 240.214844,79.5429688 C241.128911,78.4257757 242.273431,77.5468782 243.648438,76.90625 C245.023444,76.2656218 246.640616,75.9453125 248.5,75.9453125 C250.359384,75.9453125 251.976556,76.2656218 253.351562,76.90625 C254.726569,77.5468782 255.867183,78.4257757 256.773438,79.5429688 C257.679692,80.6601618 258.359373,82.0117108 258.8125,83.5976562 C259.265627,85.1836017 259.492188,86.9062407 259.492188,88.765625 C259.492188,90.6562595 259.265627,92.3828047 258.8125,93.9453125 C258.359373,95.5078203 257.679692,96.8515569 256.773438,97.9765625 C255.867183,99.1015681 254.722663,99.9843718 253.339844,100.625 C251.957024,101.265628 250.343759,101.585938 248.5,101.585938 C246.640616,101.585938 245.023444,101.265628 243.648438,100.625 C242.273431,99.9843718 241.128911,99.1015681 240.214844,97.9765625 C239.300777,96.8515569 238.621096,95.5078203 238.175781,93.9453125 C237.730467,92.3828047 237.507812,90.6562595 237.507812,88.765625 Z M242.054688,92.5625 C242.054688,93.390625 242.230467,94.1484341 242.582031,94.8359375 C242.933596,95.5234409 243.398435,96.1054664 243.976562,96.5820312 C244.554688,97.0585961 245.234371,97.4335924 246.015625,97.7070312 C246.796879,97.9804701 247.624996,98.1171875 248.5,98.1171875 C249.359379,98.1171875 250.179684,97.9804701 250.960938,97.7070312 C251.742191,97.4335924 252.421872,97.0585961 253,96.5820312 C253.578128,96.1054664 254.042967,95.5234409 254.394531,94.8359375 C254.746096,94.1484341 254.921875,93.390625 254.921875,92.5625 L254.921875,84.96875 C254.921875,84.1406209 254.746096,83.3828159 254.394531,82.6953125 C254.042967,82.0078091 253.578128,81.4218774 253,80.9375 C252.421872,80.4531226 251.742191,80.0742201 250.960938,79.8007812 C250.179684,79.5273424 249.359379,79.390625 248.5,79.390625 C247.640621,79.390625 246.81641,79.5273424 246.027344,79.8007812 C245.238277,80.0742201 244.554688,80.4531226 243.976562,80.9375 C243.398435,81.4218774 242.933596,82.0078091 242.582031,82.6953125 C242.230467,83.3828159 242.054688,84.1406209 242.054688,84.96875 L242.054688,92.5625 Z M264.90625,88.765625 C264.90625,86.9999912 265.105467,85.3320391 265.503906,83.7617188 C265.902346,82.1913984 266.499996,80.832037 267.296875,79.6835938 C268.093754,78.5351505 269.101556,77.6250034 270.320312,76.953125 C271.539069,76.2812466 272.960929,75.9453125 274.585938,75.9453125 C276.414072,75.9453125 277.984368,76.3359336 279.296875,77.1171875 C280.609382,77.8984414 281.648434,79.0312426 282.414062,80.515625 L282.414062,68.3515625 L286.75,68.3515625 L286.75,101 L282.414062,101 L282.414062,97.015625 C281.648434,98.4843823 280.625006,99.6132773 279.34375,100.402344 C278.062494,101.19141 276.515634,101.585938 274.703125,101.585938 C273.046867,101.585938 271.605475,101.250003 270.378906,100.578125 C269.152338,99.9062466 268.132817,98.9921933 267.320312,97.8359375 C266.507808,96.6796817 265.902346,95.3242265 265.503906,93.7695312 C265.105467,92.214836 264.90625,90.5468839 264.90625,88.765625 Z M269.453125,92.5625 C269.453125,93.390625 269.61328,94.1484341 269.933594,94.8359375 C270.253908,95.5234409 270.69531,96.1054664 271.257812,96.5820312 C271.820315,97.0585961 272.476559,97.4335924 273.226562,97.7070312 C273.976566,97.9804701 274.804683,98.1171875 275.710938,98.1171875 C277.882823,98.1171875 279.542963,97.4296944 280.691406,96.0546875 C281.839849,94.6796806 282.414062,92.9375105 282.414062,90.828125 L282.414062,86.703125 C282.414062,84.5937395 281.839849,82.8476632 280.691406,81.4648438 C279.542963,80.0820243 277.882823,79.390625 275.710938,79.390625 C274.820308,79.390625 273.996098,79.5273424 273.238281,79.8007812 C272.480465,80.0742201 271.820315,80.4531226 271.257812,80.9375 C270.69531,81.4218774 270.253908,82.0078091 269.933594,82.6953125 C269.61328,83.3828159 269.453125,84.1406209 269.453125,84.96875 L269.453125,92.5625 Z M303.953125,75.9453125 C305.718759,75.9453125 307.257806,76.249997 308.570312,76.859375 C309.882819,77.468753 310.968746,78.300776 311.828125,79.3554688 C312.687504,80.4101615 313.335935,81.6484304 313.773438,83.0703125 C314.21094,84.4921946 314.429688,86.0234293 314.429688,87.6640625 L314.429688,89.9609375 L297.953125,89.9609375 L297.953125,92.5625 C297.953125,93.4531295 298.121092,94.2421841 298.457031,94.9296875 C298.79297,95.6171909 299.249997,96.1992164 299.828125,96.6757812 C300.40625,97.1523461 301.054684,97.5117175 301.773438,97.7539062 C302.492191,97.996095 303.234371,98.1171875 304,98.1171875 C305.531258,98.1171875 306.859369,97.7265664 307.984375,96.9453125 C309.109381,96.1640586 309.749999,94.9218835 309.90625,93.21875 L314.242188,93.21875 C314.148437,94.5312566 313.80469,95.6992136 313.210938,96.7226562 C312.617185,97.7460989 311.847661,98.6171839 310.902344,99.3359375 C309.957027,100.054691 308.890631,100.609373 307.703125,101 C306.515619,101.390627 305.265632,101.585938 303.953125,101.585938 C302.187491,101.585938 300.644538,101.265628 299.324219,100.625 C298.0039,99.9843718 296.902348,99.1015681 296.019531,97.9765625 C295.136714,96.8515569 294.480471,95.5078203 294.050781,93.9453125 C293.621092,92.3828047 293.40625,90.6562595 293.40625,88.765625 C293.40625,86.9062407 293.636716,85.1836017 294.097656,83.5976562 C294.558596,82.0117108 295.246089,80.6601618 296.160156,79.5429688 C297.074223,78.4257757 298.179681,77.5468782 299.476562,76.90625 C300.773444,76.2656218 302.265617,75.9453125 303.953125,75.9453125 Z M303.953125,79.390625 C303.156246,79.390625 302.398441,79.51953 301.679688,79.7773438 C300.960934,80.0351575 300.320315,80.41406 299.757812,80.9140625 C299.19531,81.414065 298.753908,82.0234339 298.433594,82.7421875 C298.11328,83.4609411 297.953125,84.2656205 297.953125,85.15625 L297.953125,85.15625 L297.953125,86.515625 L309.953125,86.515625 L309.953125,85.15625 C309.953125,84.2656205 309.79297,83.4609411 309.472656,82.7421875 C309.152342,82.0234339 308.714847,81.414065 308.160156,80.9140625 C307.605466,80.41406 306.964847,80.0351575 306.238281,79.7773438 C305.511715,79.51953 304.750004,79.390625 303.953125,79.390625 Z" id="QueryNode" fill="#FFFFFF" fill-rule="nonzero"></path>
        <g id="Group-120" transform="translate(661.500000, 148.500000) rotate(-19.000000) translate(-661.500000, -148.500000) translate(517.000000, 84.000000)">
            <g id="Group-3" fill="#000000" fill-rule="nonzero">
                <path d="M104.934239,0.415426354 C108.209596,0.307119661 111.158722,0.704386115 114.010584,1.77057345 L114.207985,1.84437299 L114.8123,2.14589656 C120.000537,4.74824579 122.443383,6.38978172 124.715229,9.49924297 L124.899109,9.75462618 C125.021918,9.92748755 125.153168,10.0075729 125.924589,10.1729365 L127.203084,10.4294113 C135.489901,12.1554885 141.469362,16.8780948 144.772612,24.4191245 C148.718894,21.1965409 153.107241,19.5397358 158.111547,19.6442107 L158.378652,19.6498071 L158.819366,19.6545148 C163.605013,12.4136775 170.842982,9.15911319 180.020992,9.34610678 C185.175717,3.91545293 191.823134,1.66763302 200.516915,1.49027358 L202.030042,1.470866 L202.094342,1.50447024 L202.749975,1.48725402 L204.068598,1.47126285 L204.957912,1.92562065 C205.892737,2.40323128 206.783623,2.68250655 207.711701,2.79974336 C208.332176,2.73274211 208.976918,2.61389607 209.661365,2.4381774 L210.659975,2.16646278 C213.571564,1.39847852 216.427253,1.06747839 219.199683,1.18975286 C226.720038,0.919276104 233.447552,3.85936004 238.777079,9.8257471 L239.285133,10.4018967 C240.311985,11.5418755 241.160688,12.1485616 242.284644,12.5337233 L242.878389,12.722978 C252.817278,15.9315572 259.436791,24.3275758 260.240186,34.7519726 L260.283154,35.3545436 C260.481615,37.6961137 261.480089,39.079948 264.661186,41.385061 C267.443972,40.1334933 270.224336,39.3669698 272.988882,39.1275698 L275.049602,38.9491185 L275.193033,39.1150486 L277.106222,38.9510616 L278.457292,40.5104303 C279.289278,41.4706867 280.087033,42.4024422 280.858751,43.3160282 L282.287577,45.0111265 L283.066281,46.1367922 C284.642332,48.4394222 286.186205,50.8460045 287.727027,53.3906937 L288.642913,54.903293 L288.156157,56.6032559 C287.486421,58.9422666 286.951823,61.3623085 286.549669,63.8744104 L286.405064,64.8207854 L286.117373,67.0046518 L285.920955,68.9672539 L285.855027,69.6907975 C285.842453,69.8385828 285.830913,69.9817232 285.819708,70.1282655 L285.773356,70.7953212 L285.734087,71.4976339 C285.722033,71.7395825 285.710943,71.9903597 285.700601,72.2529177 L285.671597,73.0788867 L285.635518,74.7144097 C285.623087,75.5925464 285.621296,76.4881866 285.629733,77.405514 L285.653889,80.031866 L285.454988,80.1229271 L285.303161,85.0608455 L282.657681,81.3932583 C279.63533,82.6744624 276.509715,83.2413995 273.354234,83.0837495 C271.040099,83.2069115 268.740853,82.9376101 266.487116,82.2831359 C265.411825,86.3588661 263.33777,89.928079 260.295186,92.7932212 L259.915956,93.1453096 C259.841298,93.228221 259.80157,93.3515887 259.729786,93.8593761 L259.550132,95.2225397 L259.474642,95.7132971 C257.694464,106.711134 250.393483,114.798926 239.733049,117.486446 L239.122343,117.636385 C238.190257,117.874609 237.741317,118.110146 237.211642,118.634259 L236.761269,119.097599 C231.191719,124.772821 224.609592,127.585836 217.357015,127.300173 C213.976847,127.447827 210.499646,126.906404 206.952546,125.691017 L206.024206,125.365291 C205.909359,125.326988 205.801885,125.293008 205.700747,125.263001 C202.620953,126.077751 199.638356,126.439501 196.768227,126.326601 C189.245849,126.616844 182.659266,123.772879 177.411383,117.812473 L177.023488,117.365091 C176.906,117.230893 176.810526,117.128392 176.734883,117.05246 L176.63602,116.957847 C169.348562,116.807009 163.509084,113.292929 158.719081,107.090189 C155.052544,107.838834 151.77191,109.23727 146.706148,112.004005 L145.734868,112.538978 L142.772658,114.191177 L141.210925,115.049761 L140.275863,115.552298 L139.728307,115.838878 C138.278853,116.584705 136.878808,117.200448 134.660572,118.094275 L131.211739,119.469467 L130.359909,119.819379 C126.781746,121.30841 124.641552,122.46294 122.680094,124.055697 L122.223963,124.428845 C120.197718,126.031914 117.448448,127.08327 114.987491,126.91303 L114.47581,126.866164 C113.857976,126.941857 113.246106,126.952922 112.639953,126.887197 C111.222909,126.734474 109.756565,126.647706 108.209282,126.620373 L107.248607,126.640938 C104.924033,126.704479 102.70634,126.869453 99.1165861,127.226504 L93.0267599,127.854135 C91.9551182,127.961744 91.0905288,128.043301 90.2507118,128.115261 L88.9004912,128.224704 C88.46335,128.257544 88.0270144,128.260193 87.5925024,128.224457 L87.2669762,128.19033 L86.8463261,128.224407 C85.5969737,128.319486 84.3932126,128.182883 83.2395811,127.615998 L81.9732401,126.999506 L75.450438,123.885777 C65.6522675,119.18399 60.6607544,116.401929 55.3829923,112.320948 L54.4830934,111.614883 C51.4206069,109.177048 49.2312238,105.844492 48.7912225,102.252373 L48.7304196,101.669402 C48.4433969,99.0687651 47.394881,97.0102431 44.6931354,93.1889745 L43.3310344,91.2596519 L42.8318376,90.5332738 C40.0747106,91.4726119 37.3273513,91.8897431 34.6124864,91.7524562 C30.9343273,91.9431621 27.370256,91.1390133 24.0022495,89.3431809 C21.655833,90.5071842 19.2235263,91.223539 16.7400159,91.4862715 L14.5338269,91.7196659 L14.3736102,91.5190593 L12.4733695,91.7211354 L11.0881201,89.9822298 C10.4297399,89.1557641 9.73054169,88.3359287 8.98549225,87.5157768 L8.38729761,86.858368 L7.96806477,86.4052863 C7.88434543,86.3160164 7.80542962,86.2327835 7.72833301,86.1524412 L7.27442133,85.6892856 L7.0732133,85.4317794 L5.7549923,83.8175294 L5.1887649,81.91449 C3.31489003,75.5675675 1.79203674,69.8046104 0.54792622,64.235065 L0.36462412,63.4144712 L1.44128733,57.7733386 C1.70062194,56.3424884 1.92456483,54.8797761 2.11245278,53.3924171 L2.40211466,51.0993951 L4.52366353,50.1823975 C4.66824464,50.1199052 4.78301078,50.0602794 4.89915649,49.9867826 C7.71962426,48.2042748 10.5614461,47.2009888 13.400062,47.5069155 C14.6951107,47.3606652 15.9685125,47.4572087 17.1974817,47.8469327 C19.8410123,48.6875029 22.6260543,49.1010804 25.7881014,49.1739376 L26.6040306,49.1520788 C28.4000883,49.0924898 30.1434349,48.95553 33.0622801,48.6623052 L36.669465,48.2899364 L39.3068204,48.0341576 L39.6086631,47.4280719 C42.1260342,42.3221652 43.4687768,38.3002443 43.9846071,33.8135649 L44.0812156,32.9232954 C45.1086611,24.2464847 51.1017824,17.4402313 59.9107284,14.2174308 C61.4555318,13.6510862 62.5005157,12.9215268 63.5752992,11.663453 L64.0663394,11.0715352 C69.3935607,4.71725085 76.2660051,1.53986379 84.11199,1.82788395 C86.2560846,1.7370584 88.4570681,1.91383179 90.7078004,2.35499556 L91.5866572,2.5354456 C91.7630158,2.56872453 91.9408322,2.5972212 92.1228921,2.62153446 L92.3546248,2.57258193 C92.8919861,2.44465406 93.4085828,2.21944194 93.9605799,1.86865847 L94.6433613,1.4347641 L95.9407537,1.21055869 C99.7207094,0.568596193 102.237995,0.310195642 104.934239,0.415426354 Z" id="Path"></path>
            </g>
            <g id="Group" transform="translate(180.039334, 41.925759)">
                <path d="M0.177053222,16.6037835 C1.33422134,20.0232848 3.63106656,21.3258176 7.06758889,20.5123223 C6.87979072,21.0380377 6.37255155,21.458422 5.68948175,21.8242597 C8.00842088,23.5048562 10.1331178,25.3857699 12.383934,27.1669953 C13.9102544,28.3745419 15.5139035,29.4485437 16.8505845,30.8131466 C17.2427513,30.9899525 17.6026978,31.2325904 17.8963626,31.5551671 C18.1734569,31.8608156 18.4155693,32.1871541 18.6245408,32.5313613 C24.2419153,36.3505567 30.7292373,39.7202137 33.6235384,32.3583173 C38.4851174,19.9950711 -3.03116545,13.0074764 0.177053222,16.6037835" id="Fill-4" fill="#C4C3C7"></path>
                <path d="M40.8785985,19.7764466 C45.3976343,21.9301669 49.0520539,25.0795538 51.84,29.2236792 C36.4886515,42.7231725 29.2308905,12.2490965 17.82,11.6580065 C30.4261225,-2.8575677 42.5548952,19.4117709 40.8785985,19.7764466" id="Fill-22" fill="#C4C3C7"></path>
                <path d="M84.933317,22.1609349 C74.8287259,18.3386186 76.1047132,-5.39850634 58.32,5.56992019 C65.5794465,9.68575911 72.1529684,35.197065 86.67,29.3825223 C86.0911057,26.9756371 85.5122114,24.5678201 84.933317,22.1609349" id="Fill-24" fill="#C4C3C7"></path>
                <path d="M100.876442,20.1951028 C90.7718507,16.3727864 92.0478381,-7.36433848 74.2631248,3.60408805 C81.5225713,7.71992697 88.0960932,33.2312328 102.613125,27.4166902 C102.034231,25.009805 101.455336,22.601988 100.876442,20.1951028" id="Fill-24-Copy" fill="#C4C3C7"></path>
                <path d="M49.4092637,16.5651162 C42.4435435,15.5973719 42.0135264,8.33791889 38.07,7.8755217 C45.7954481,-7.96843554 66.8876487,24.1480645 69.6470027,27.644372 C70.3640075,28.5536313 41.1432757,25.8368194 49.4092637,16.5651162" id="Fill-42" fill="#C4C3C7"></path>
                <path d="M27.052271,18.09 C30.9761926,17.0784333 34.9193805,16.1344896 38.88,15.2896646 C35.2047066,9.52781022 26.6311627,1.39637 17.82,11.6500624 C21.1512507,11.8242149 24.1256145,14.6069497 27.052271,18.09" id="Fill-84" fill="#FFFFFF"></path>
                <path d="M62.8054461,11.61 C66.96649,11.216281 71.1407137,10.9619648 75.33,10.874367 C71.8665429,4.50516081 67.9097855,-0.808162511 57.51,5.60154591 C59.2751487,6.60091412 60.9998167,8.85208284 62.8054461,11.61" id="Fill-86" fill="#FFFFFF"></path>
                <path d="M78.748571,9.64416786 C82.9096149,9.25044881 87.0838385,8.99613268 91.2731248,8.9085349 C87.8096677,2.53932867 83.8529103,-2.77399465 73.4531248,3.63571377 C75.2182735,4.63508198 76.9429415,6.8862507 78.748571,9.64416786" id="Fill-86-Copy" fill="#FFFFFF"></path>
                <path d="M50.468421,5.93206433 C49.9404675,5.76134212 49.4068574,5.5267132 48.8694762,5.21904803 C47.268646,4.30153026 45.4934025,3.79118953 43.6446227,3.51 C41.4545587,3.6305098 39.5275286,4.91503468 38.07,7.85839518 C40.7672764,8.17062511 41.8505238,11.5622455 44.431839,14.04 C48.7723705,13.243905 53.1317575,12.5610161 57.51,12.0205479 C55.2200019,9.64869603 52.8159282,7.48682331 50.468421,5.93206433" id="Fill-104" fill="#FFFFFF"></path>
            </g>
            <g id="Group-4" transform="translate(33.580464, 68.488768) rotate(11.000000) translate(-33.580464, -68.488768) translate(23.580464, 53.488768)">
                <path d="M19.3437424,25.834829 C19.3311701,25.7360199 19.3293741,25.6381609 19.328476,25.5393518 C18.8803648,24.6633711 18.4933189,23.7493869 18.2652222,22.7831479 C18.1359075,22.2349474 18.1314174,21.6810464 18.2203213,21.1489974 C18.1826045,21.0986427 18.1439897,21.0482881 18.1062729,20.9969834 C20.2920498,16.9458102 -3.5970373,-15.7780542 0.633527676,12.0823122 C1.79107347,19.7001139 10.668884,32.4436378 19.9301484,29.2465933 C19.6894795,28.1264401 19.4838332,26.9939358 19.3437424,25.834829" id="Fill-6" fill="#C4C3C7"></path>
                <path d="M11.1193198,6.82670651 C5.75425428,0.616815143 -0.483819523,-3.16209677 0.404394887,8.07428987 C3.93310168,7.42880109 7.54052234,6.90445446 11.1193198,6.82670651" id="Fill-68" fill="#FFFFFF"></path>
            </g>
            <g id="Group-4-Copy" transform="translate(17.102416, 68.724700) rotate(11.000000) translate(-17.102416, -68.724700) translate(7.102416, 53.724700)">
                <path d="M19.3437424,25.834829 C19.3311701,25.7360199 19.3293741,25.6381609 19.328476,25.5393518 C18.8803648,24.6633711 18.4933189,23.7493869 18.2652222,22.7831479 C18.1359075,22.2349474 18.1314174,21.6810464 18.2203213,21.1489974 C18.1826045,21.0986427 18.1439897,21.0482881 18.1062729,20.9969834 C20.2920498,16.9458102 -3.5970373,-15.7780542 0.633527676,12.0823122 C1.79107347,19.7001139 10.668884,32.4436378 19.9301484,29.2465933 C19.6894795,28.1264401 19.4838332,26.9939358 19.3437424,25.834829" id="Fill-6" fill="#C4C3C7"></path>
                <path d="M11.1193198,6.82670651 C5.75425428,0.616815143 -0.483819523,-3.16209677 0.404394887,8.07428987 C3.93310168,7.42880109 7.54052234,6.90445446 11.1193198,6.82670651" id="Fill-68" fill="#FFFFFF"></path>
            </g>
            <path d="M113.741478,44.1 C109.733921,41.1787506 99.6936378,14.5330447 97.2,8.87898075 C123.719159,-4.05783539 121.234912,35.4411642 113.741478,44.1" id="Fill-8" fill="#C4C3C7"></path>
            <path d="M74.5254202,23.3657811 C73.5334699,24.2064054 75.4385467,23.9562684 74.5254202,23.3657811 M52.2439041,38.7 C50.6428616,5.87361782 93.3786169,26.2700358 90.7866479,35.1242709 C88.550921,42.7565252 56.9313553,26.0516785 52.2439041,38.7" id="Fill-10" fill="#C4C3C7"></path>
            <path d="M56.1232536,64.7201807 C57.6381223,62.4705987 73.5202145,53.9500211 73.617375,52.2 C80.2326498,67.2761462 54.4704796,76.1010301 52.0017661,89.1 C42.6043566,81.7924935 50.7522606,58.5374652 56.1232536,64.7201807" id="Fill-12" fill="#C4C3C7"></path>
            <path d="M213.734737,11.484054 C202.625428,11.9961911 224.084054,7.07963962 232.010169,13.5279612 C235.658558,16.4964037 233.471218,18.5249731 234.320877,21.5535844 C234.700999,22.9114209 235.517879,37.1669925 230.851079,36.225392 C227.283574,35.5049956 212.817775,12.6238065 213.734737,11.484054" id="Fill-14" fill="#C4C3C7" transform="translate(222.617861, 23.220021) rotate(12.000000) translate(-222.617861, -23.220021) "></path>
            <path d="M176.382231,108.9 C160.923014,106.868513 160.896523,73.6566893 169.881881,66.6 C176.924266,70.1803153 182.710392,101.202168 176.382231,108.9" id="Fill-16" fill="#C4C3C7"></path>
            <path d="M113.801806,44.1 C125.975761,44.0989576 166.560384,65.8526678 134.832801,64.760187 C126.06784,64.4589209 110.723276,52.0580134 113.801806,44.1" id="Fill-18" fill="#C4C3C7"></path>
            <path d="M71.9753112,88.3160199 C73.5169792,95.3492442 67.7101664,104.201705 70.7485198,111.6 C31.1691612,95.0402596 78.4670826,74.463719 76.2435231,72 C80.8092319,77.0610254 70.2659819,89.6947236 71.9753112,88.3160199" id="Fill-20" fill="#C4C3C7"></path>
            <path d="M229.5,114.142146 C211.434154,130.900584 188.417203,97.6354983 195.824221,89.9087865 C200.584103,84.9446122 218.303682,104.361187 213.847688,106.662107 C219.814854,107.621165 225.031602,110.113488 229.5,114.142146" id="Fill-26" fill="#C4C3C7"></path>
            <path d="M196.711631,118.8 C172.13523,117.573623 185.789927,81.474199 183.938147,81 C194.537356,83.7102928 200.867096,118.417779 196.711631,118.8" id="Fill-28" fill="#C4C3C7"></path>
            <path d="M111.867241,118.371604 C113.507639,118.727037 115.401424,117.327194 116.715167,116.49646 C118.331142,115.47498 119.869778,114.333634 121.5,113.336128 C109.662066,111.67883 92.4969094,78.5974911 90.9511498,97.7460597 C90.0973694,108.321498 100.091382,117.144787 109.000615,118.8 C109.790286,118.340334 110.752951,118.130827 111.867241,118.371604" id="Fill-30" fill="#C4C3C7"></path>
            <path d="M145.319082,37.3022764 C147.614962,37.554027 171.02712,47.4115064 170.071543,50.7781545 C165.657588,66.3423242 129.565058,47.1948358 130.518555,39.3296939 C131.599948,30.4111203 147.431957,38.5682516 145.319082,37.3022764" id="Fill-32" fill="#C4C3C7"></path>
            <path d="M160.901779,39.059438 C156.946529,35.6225674 152.512945,33.3705708 147.6,32.3023968 C158.246772,15.1264545 177.46754,38.9227622 189,40.3315743 C179.634955,50.6274672 162.84803,44.5022888 160.901779,39.059438" id="Fill-34" fill="#C4C3C7"></path>
            <path d="M81.2174601,18.2277638 C79.7347545,17.6707141 71.5051718,16.8683964 72.023449,13.3140871 C74.6581107,-4.75676946 111.368211,22.0294197 104.428655,31.8869119 C97.8940341,41.1696869 83.5811339,19.6068773 81.2174601,18.2277638" id="Fill-36" fill="#C4C3C7"></path>
            <path d="M230.622965,94.7724297 C231.411829,94.6597922 248.688044,95.4889293 248.658372,95.424267 C246.750161,97.3860366 250.029419,94.1174636 251.057704,94.2207146 C252.650779,121.952481 208.68826,104.23085 212.653041,91.1784595 C214.50907,85.063704 231.037349,94.3458674 230.622965,94.7724297" id="Fill-38" fill="#C4C3C7"></path>
            <path d="M90.9,53.6416969 C94.4519264,50.7420505 131.139587,60.0408464 130.491516,68.2782009 C128.979351,87.4898834 93.5577134,57.8803455 90.9,53.6416969" id="Fill-40" fill="#C4C3C7"></path>
            <path d="M193.239456,24.7317136 C194.294237,24.9721804 206.720756,34.095531 203.878591,36.3255007 C195.180747,43.1490023 160.619203,24.4912468 171.190619,17.0655505 C179.398011,11.3005137 191.222237,21.1976741 193.239456,24.7317136" id="Fill-44" fill="#C4C3C7"></path>
            <path d="M47.6873503,63 C42.339507,48.7225085 62.4132807,31.0128296 74.484651,38.8053739 C87.3661461,47.1242209 53.7454539,55.4185888 47.6873503,63" id="Fill-46" fill="#C4C3C7"></path>
            <path d="M98.1,118.872822 C76.7208987,130.244565 70.6228224,101.546031 77.2381602,92.8246579 C86.2912742,80.8897119 87.6135108,110.089332 98.1,118.872822" id="Fill-48" fill="#C4C3C7"></path>
            <path d="M109.8,76.0759322 C92.8393118,96.5568579 71.5569148,56.7146429 78.8864253,53.2257851 C83.0217643,51.2557656 106.643102,73.0330577 109.8,76.0759322" id="Fill-50" fill="#C4C3C7"></path>
            <path d="M211.057214,17.9230283 C217.812937,19.6568298 216.741026,30.6675955 218.7,36.5097084 C206.859414,40.3365584 197.285536,14.8023902 186.3,13.09827 C192.704615,9.41777982 218.466617,13.6970149 211.057214,17.9230283" id="Fill-52" fill="#C4C3C7"></path>
            <path d="M132.193541,109.547451 C129.420692,109.083603 104.487606,102.848555 106.293445,94.6413916 C110.114317,77.2780554 141.727262,106.35025 142.2,105.4256 C140.622839,108.510137 135.224807,110.536046 132.193541,109.547451" id="Fill-54" fill="#C4C3C7"></path>
            <path d="M119.7,85.4314965 C128.880798,65.5579835 151.175546,93.0804845 159.3,97.3306221 C148.492866,107.715065 128.725909,92.1147827 119.7,85.4314965" id="Fill-56" fill="#C4C3C7"></path>
            <path d="M157.816311,93.6 C140.137835,89.1363713 152.871151,65.6474059 153.840093,66.5125707 C156.471722,55.5006287 170.662636,64.7086762 163.694837,66.6762785 C163.970033,67.4544088 164.374979,67.3020983 164.90863,66.2214194 C166.176834,71.8786647 164.549723,75.9910469 160.025205,78.559602 C159.687227,80.3034013 160.17379,90.1528104 157.816311,93.6" id="Fill-58" fill="#C4C3C7"></path>
            <path d="M243.602826,90.6859733 C245.105177,89.525989 243.124711,88.6963734 243.602826,90.6859733 M258.3,79.230733 C258.418195,96.4552853 223.786832,92.9120031 224.10214,86.5927804 C224.676084,75.1248742 253.201182,78.7251529 258.3,79.230733" id="Fill-60" fill="#C4C3C7"></path>
            <path d="M239.926614,36.7433995 C241.238814,35.874078 239.509014,35.2523431 239.926614,36.7433995 M248.806973,29.482044 C248.875402,40.9650789 228.825665,38.6028908 229.008212,34.3900756 C229.340495,26.7448048 245.855026,29.1449906 248.806973,29.482044" id="Fill-60-Copy" fill="#C4C3C7" transform="translate(238.907061, 33.361555) rotate(-54.000000) translate(-238.907061, -33.361555) "></path>
            <path d="M124.703839,41.4 C119.480514,33.4519307 131.045056,25.557363 123.898751,17.1 C151.365053,19.9530739 130.30253,34.2019815 124.703839,41.4" id="Fill-62" fill="#C4C3C7"></path>
            <path d="M135.9,69.4199022 C139.417943,67.9927804 142.773678,68.0635214 145.966172,69.6310999 C149.7889,77.892413 137.510711,71.7153949 135.9,69.4199022" id="Fill-64" fill="#C4C3C7"></path>
            <path d="M189.715835,64.7203074 C189.505504,65.2968063 188.937405,65.7577992 188.172377,66.1589765 C189.184853,66.8777953 190.161242,67.6337411 191.129383,68.4 C196.087627,66.890171 201.078863,65.4350011 206.1,64.0685233 C194.437972,59.7411718 179.93029,58.1653393 181.998544,60.4342081 C183.293523,64.182998 185.866985,65.6123853 189.715835,64.7203074" id="Fill-66" fill="#FFFFFF"></path>
            <path d="M102.465922,15.9030455 C106.151161,15.8442315 109.373982,16.8750247 112.676391,18.4444305 C113.82488,18.9902659 114.933071,19.6217429 116.076522,20.180992 C114.615725,19.4669691 118.733158,20.758814 117.233071,20.6091994 C117.457731,20.6308677 117.680377,20.6638861 117.9,20.7 C116.941919,9.7420183 111.345554,0.773395227 97.2,8.01267956 C97.838721,9.52946234 98.9952694,12.5558051 100.412746,16.2187839 C101.071616,16.0289281 101.758695,15.9143956 102.465922,15.9030455" id="Fill-70" fill="#FFFFFF"></path>
            <path d="M61.8780417,33.801935 C62.3791784,32.8811767 62.9043278,31.9747732 63.5015157,31.1124595 C65.1396061,28.739815 67.0282648,26.7260408 69.1351267,25.0916435 C69.5412562,23.7433171 70.2167467,22.4370297 71.1,21.2271246 C60.8298309,19.2359079 50.5356491,22.4308776 51.3447759,38.7 C52.8147768,34.8108728 56.8854679,33.7014513 61.8780417,33.801935" id="Fill-72" fill="#FFFFFF"></path>
            <path d="M53.1281591,87.8008986 C53.7982617,85.6573871 55.0772704,83.6230927 56.7,81.6500414 C54.5081422,80.4445714 52.985367,78.1714286 53.2077146,74.8153021 C53.4137432,71.7031276 53.2597317,68.6225954 53.2077146,65.5053173 C53.2046548,65.2715725 53.2250537,65.0347655 53.2444326,64.8 C49.1503808,68.0326194 45.9345,81.9981069 51.8246717,88.2 C52.2479481,88.0346434 52.6834639,87.9039913 53.1281591,87.8008986" id="Fill-74" fill="#FFFFFF"></path>
            <path d="M215.326399,11.5391162 C214.928682,12.005732 217.400336,16.3084227 220.619498,21.0906198 C225.631984,20.6033243 230.698283,20.3610007 235.729468,20.3738554 C235.32157,17.8490621 236.952248,16.0136145 233.583077,13.4286142 C225.684207,7.36789322 204.222461,12.0439665 215.326399,11.5391162" id="Fill-76" fill="#FFFFFF" transform="translate(223.989282, 15.690620) rotate(12.000000) translate(-223.989282, -15.690620) "></path>
            <path d="M179.1,90.9 C177.957287,80.1488265 174.195335,68.7005771 169.991786,66.6 C166.312503,69.4402462 164.118118,76.4754136 163.8,84.0404002 C168.92337,86.2708349 174.006976,88.5978838 179.1,90.9" id="Fill-78" fill="#FFFFFF"></path>
            <path d="M119.667821,56.7 C124.283817,54.8056196 128.790057,52.4268221 133.2,50.065546 C127.21308,47.1446135 120.5583,44.7544785 116.012714,44.1 C115.220602,44.6637791 114.352902,45.0925399 113.443785,45.3605153 C113.016148,48.9441718 115.767315,53.1534479 119.667821,56.7" id="Fill-80" fill="#FFFFFF"></path>
            <path d="M71.8530854,88.1158814 C71.4561827,87.8921866 71.0522992,87.6796259 70.6524047,87.4609921 C69.3809197,86.7666272 68.2520405,85.9416894 67.134131,85.0033858 C66.0950036,84.1308749 65.3011981,83.0650349 64.7038495,81.9 C64.6370342,81.931378 64.5742079,81.9708536 64.5063953,82.0002072 C62.310466,83.8707411 60.1813519,85.939665 58.5,88.1371374 C60.4885028,88.9276607 62.1838161,90.5623535 62.9865968,93.2193619 C63.0743542,93.5098615 63.1890372,93.8003611 63.2967394,94.0898485 C64.1543685,94.4157748 65.0000307,94.897579 65.8077976,95.5818219 C67.3634969,96.8976737 69.0528267,98.0141234 70.8269222,99 C71.6237195,95.3682491 72.4265002,91.8043151 71.7403969,88.6148929 C71.4392295,88.8618681 71.5319731,88.6503196 71.8530854,88.1158814" id="Fill-82" fill="#FFFFFF"></path>
            <path d="M201.670694,100.78967 C204.190959,100.824937 206.696888,100.768296 209.194624,100.644328 C210.268886,100.424178 211.337003,100.180516 212.4,99.9165498 C207.9944,93.7373818 199.723914,86.6252469 196.703897,89.9456681 C195.063317,91.7485489 194.940428,94.88943 195.921498,98.4748864 C197.825266,99.2764043 199.743372,100.044793 201.670694,100.78967" id="Fill-88" fill="#FFFFFF"></path>
            <path d="M182.7,92.5721137 C186.87222,94.4835181 191.062959,96.347792 195.3,98.1 C192.818275,89.9045262 188.956786,82.2316776 184.250563,81 C184.925527,81.1770013 183.544733,86.2021621 182.7,92.5721137" id="Fill-90" fill="#FFFFFF"></path>
            <path d="M93.9269469,104.4 C98.351299,103.89176 102.738808,103.194929 107.1,102.354256 C98.9744769,93.9326076 91.9310936,85.8870783 90.9521149,97.8781241 C90.7700038,100.103937 91.0731714,102.248772 91.7363505,104.274272 C92.4658476,104.307302 93.1974499,104.35738 93.9269469,104.4" id="Fill-92" fill="#FFFFFF"></path>
            <path d="M137.182318,47.7 C138.920525,46.787074 140.64639,45.9027728 142.357855,45.0869665 C145.851753,43.4216177 149.405306,41.8002284 153,40.2330217 C149.144061,38.5625613 145.933007,37.3674768 145.157499,37.2826248 C147.247461,38.5359812 131.587144,30.4545925 130.518507,39.2904486 C130.245948,41.5323823 133.008565,44.6964427 137.182318,47.7" id="Fill-94" fill="#FFFFFF"></path>
            <path d="M172.8,32.3874433 C163.69103,26.6799817 154.04856,21.7245274 147.6,32.313717 C151.80523,33.2437205 155.653107,35.0742368 159.144643,37.8 C163.649524,35.8694266 168.211095,34.0631346 172.8,32.3874433" id="Fill-96" fill="#FFFFFF"></path>
            <path d="M75.769,17.1 C82.4406556,12.420378 90.0485231,13.3552389 97.2,16.7373293 C87.9886532,8.0821557 73.6266131,2.07522273 72.0231338,13.4562761 C71.7694703,15.2600577 73.6398566,16.3693408 75.769,17.1" id="Fill-98" fill="#FFFFFF"></path>
            <path d="M228.885638,94.3770894 C229.088749,94.3048896 229.295883,94.2433074 229.5,94.1753546 C226.246193,91.9998048 214.203287,85.9063542 212.647774,91.2162247 C211.901691,93.7570205 212.8901,96.46876 214.946353,99 C219.578704,97.6961566 224.157764,96.0557347 228.885638,94.3770894" id="Fill-100" fill="#FFFFFF"></path>
            <path d="M91.8,53.4243639 C91.9161043,53.7699301 92.007329,54.1246167 92.0819675,54.483357 C93.5083913,56.102755 96.6774156,58.9969983 100.624961,62.1 C102.048274,61.054181 103.828194,60.4035843 105.724218,60.2292811 C109.247775,59.9049962 112.702914,59.0517214 116.1,57.8883491 C106.252907,54.3941786 94.6435178,52.2478175 91.8,53.4243639" id="Fill-102" fill="#FFFFFF"></path>
            <path d="M176.936312,30.6 C177.299857,30.4131248 177.655069,30.2130465 178.024864,30.0373432 C183.006157,27.6699192 188.165578,26.2500741 193.5,25.3573389 C191.194771,21.7366325 179.429043,12.332952 171.220637,17.9453009 C166.63518,21.0805381 170.415421,26.2419491 176.936312,30.6" id="Fill-106" fill="#FFFFFF"></path>
            <path d="M51.3883237,54.1400537 C52.2566366,49.0877731 55.1009998,43.8750862 59.1595114,40.1474511 C59.2382554,39.9653124 59.3201918,39.7842085 59.4,39.6 C50.4593565,44.0810272 43.275557,54.6885397 46.8264885,63.9 C47.885277,62.6126102 49.7527882,61.3045228 52.0619046,59.9809122 C51.2318996,58.225757 51.0361036,56.1880797 51.3883237,54.1400537" id="Fill-108" fill="#FFFFFF"></path>
            <path d="M86.9907331,103.940745 C87.6938221,103.947051 88.3958861,103.961764 89.1,103.981731 C85.3754733,94.1250895 82.7732242,85.2563189 77.1608114,92.8671302 C75.6951886,94.8554835 74.8691103,97.8705923 74.7,101.214641 C77.7081139,102.518841 80.8904626,103.529833 84.1220071,104.4 C84.9726833,104.100486 85.9248256,103.930236 86.9907331,103.940745" id="Fill-110" fill="#FFFFFF"></path>
            <path d="M199.852676,24.3 C200.078298,24.2773709 200.300843,24.2485703 200.526464,24.2279985 C205.601923,23.7548456 210.797372,23.6643294 216,23.9348494 C215.124178,21.0239306 213.6802,18.6797667 210.886595,17.9535799 C218.244934,13.7065185 192.659451,9.4069989 186.3,13.1047915 C190.979596,13.839207 195.399727,18.9749729 199.852676,24.3" id="Fill-112" fill="#FFFFFF"></path>
            <path d="M110.981246,100.8 C117.533482,99.4367766 124.030744,97.7927393 130.5,96.0190172 C120.852645,89.5306864 108.59456,83.3772899 106.293965,93.7755701 C105.725559,96.3498669 107.791738,98.7291258 110.981246,100.8" id="Fill-114" fill="#FFFFFF"></path>
            <path d="M148.689004,77.5920226 C152.20528,78.9320253 155.676074,80.3834322 159.12059,81.9 C159.185276,80.0166393 159.20549,78.5000715 159.315658,77.9083683 C163.684978,75.3019316 165.25765,71.1316329 164.032664,65.3932683 C163.516188,66.489443 163.125042,66.6428865 162.860235,65.8535986 C169.589573,63.8577828 155.88226,54.5198029 153.341323,65.6885944 C152.86932,65.2461307 149.526886,71.065421 148.5,77.5300146 C148.563675,77.5531362 148.625329,77.56785 148.689004,77.5920226" id="Fill-116" fill="#FFFFFF"></path>
            <path d="M126.411234,25.0640203 C130.285909,26.4450761 131.881128,30.2730689 131.538006,34.2 C138.150638,27.2182225 143.775038,19.1624038 124.2,17.1 C126.455378,19.8060125 126.800507,22.4528661 126.411234,25.0640203" id="Fill-118" fill="#FFFFFF"></path>
        </g>
    </g>
</svg>